<svg viewBox="0 0 800 800" xmlns="http://www.w3.org/2000/svg"><path d="M589.7972788412601,178.0949532548004 L208.06725370699994,398.24227788534984 M208.06725370699994,398.24227788534984 L207.8542373525557,287.7402108375674 M590.0084111459646,67.83885177637569 L207.8542373525557,287.7402108375674 M589.7972788412601,178.0949532548004 L590.0084111459646,67.83885177637569 M685.334646719987,232.94873508486245 L589.7972788412601,178.0949532548004 M303.6050886752376,453.58555019642614 L685.334646719987,232.94873508486245 M303.6050886752376,453.58555019642614 L208.06725370699994,398.24227788534984 M303.49834302158905,343.02199062385364 L207.8542373525557,287.7402108375674 M303.6050886752376,453.58555019642614 L303.49834302158905,343.02199062385364 M685.6520481702889,122.63114379550723 L590.0084111459646,67.83885177637569 M303.49834302158905,343.02199062385364 L685.6520481702889,122.63114379550723 M685.334646719987,232.94873508486245 L685.6520481702889,122.63114379550723" stroke="black"  stroke-width="4"  fill="red"/>
<path d="M208.06725370699994,398.24227788534984 L207.8542373525557,287.7402108375674 M112.10338602987383,453.5855501964261 L111.78314906892837,343.02199062385364 M208.06725370699994,398.24227788534984 L112.10338602987383,453.5855501964261 M207.8542373525557,287.7402108375674 L111.78314906892837,343.02199062385364 M591.9298806200211,732.1611482236244 L592.145770687983,621.2901422386801 M112.10338602987383,453.5855501964261 L591.9298806200211,732.1611482236244 M111.78314906892837,343.02199062385364 L592.145770687983,621.2901422386801 M687.8937402924441,676.1967439667062 L688.2168509310716,565.3872235380084 M591.9298806200211,732.1611482236244 L687.8937402924441,676.1967439667062 M592.145770687983,621.2901422386801 L688.2168509310716,565.3872235380084 M687.8937402924441,676.1967439667062 L208.06725370699994,398.24227788534984 M688.2168509310716,565.3872235380084 L207.8542373525557,287.7402108375674" stroke="black"  stroke-width="4"  fill="red"/></svg>