<svg viewBox="0 0 800 800" xmlns="http://www.w3.org/2000/svg"><path d="M208.68556561758032,148.05805920272599 L145.37892882738174,184.56759684210436 M145.37892882738174,184.56759684210436 L145.37365576437338,173.59860797875956 M208.68556561758032,137.09211862765005 L145.37365576437338,173.59860797875956 M208.68556561758032,148.05805920272599 L208.68556561758032,137.09211862765005 M335.3691799055223,221.11770063441543 L208.68556561758032,148.05805920272599 M272.0625822152167,257.7084382274962 L335.3691799055223,221.11770063441543 M272.0625822152167,257.7084382274962 L295.1944947168106,207.7347215488167 M295.1944947168106,207.7347215488167 L231.8526973384129,171.19947384173037 M231.8526973384129,171.19947384173037 L145.37892882738174,184.56759684210436 M231.8526973384129,171.19947384173037 L231.85462662935242,160.23160073051224 M231.85462662935242,160.23160073051224 L145.37365576437338,173.59860797875956 M335.3797377532003,210.1456634763269 L208.68556561758032,137.09211862765005 M272.0678670096629,246.73335277381926 L335.3797377532003,210.1456634763269 M272.0678670096629,246.73335277381926 L295.20170292914815,196.76380014457294 M295.20170292914815,196.76380014457294 L231.85462662935242,160.23160073051224 M335.3691799055223,221.11770063441543 L335.3797377532003,210.1456634763269 M272.0625822152167,257.7084382274962 L272.0678670096629,246.73335277381926 M295.1944947168106,207.7347215488167 L295.20170292914815,196.76380014457294" stroke="black"  stroke-width="4"  fill="red"/>
<path d="M145.37892882738174,184.56759684210436 L82.00195132963836,221.11770063441543 M82.00195132963836,221.11770063441543 L81.99139348196042,210.1456634763269 M145.37365576437338,173.59860797875956 L81.99139348196042,210.1456634763269 M145.37892882738174,184.56759684210436 L145.37365576437338,173.59860797875956 M145.37892882738174,184.56759684210436 L122.14144661866612,234.5061236169205 M122.14144661866612,234.5061236169205 L185.4832439782519,271.1117511567474 M185.4832439782519,271.1117511567474 L272.0625822152167,257.7084382274962 M208.68556561758032,294.3398774196793 L272.0625822152167,257.7084382274962 M82.00195132963836,221.11770063441543 L208.68556561758032,294.3398774196793 M208.68556561758032,294.3398774196793 L208.68556561758032,283.3617436752246 M81.99139348196042,210.1456634763269 L208.68556561758032,283.3617436752246 M145.37365576437338,173.59860797875956 L122.13423254061189,223.53297070487383 M122.13423254061189,223.53297070487383 L185.48130882158932,260.13554995021576 M185.48130882158932,260.13554995021576 L272.0678670096629,246.73335277381926 M208.68556561758032,283.3617436752246 L272.0678670096629,246.73335277381926 M122.14144661866612,234.5061236169205 L122.13423254061189,223.53297070487383 M185.4832439782519,271.1117511567474 L185.48130882158932,260.13554995021576 M272.0625822152167,257.7084382274962 L272.0678670096629,246.73335277381926" stroke="black"  stroke-width="4"  fill="red"/>
<path d="M185.4832439782519,271.1117511567474 L185.48130882158932,260.13554995021576 M272.0625822152167,257.7084382274962 L272.0678670096629,246.73335277381926 M185.4832439782519,271.1117511567474 L272.0625822152167,257.7084382274962 M185.48130882158932,260.13554995021576 L272.0678670096629,246.73335277381926 M295.1944947168106,207.7347215488167 L295.20170292914815,196.76380014457294 M272.0625822152167,257.7084382274962 L295.1944947168106,207.7347215488167 M272.0678670096629,246.73335277381926 L295.20170292914815,196.76380014457294 M231.8526973384129,171.19947384173037 L231.85462662935242,160.23160073051224 M295.1944947168106,207.7347215488167 L231.8526973384129,171.19947384173037 M295.20170292914815,196.76380014457294 L231.85462662935242,160.23160073051224 M145.37892882738174,184.56759684210436 L145.37365576437338,173.59860797875956 M231.8526973384129,171.19947384173037 L145.37892882738174,184.56759684210436 M231.85462662935242,160.23160073051224 L145.37365576437338,173.59860797875956 M122.14144661866612,234.5061236169205 L122.13423254061189,223.53297070487383 M145.37892882738174,184.56759684210436 L122.14144661866612,234.5061236169205 M145.37365576437338,173.59860797875956 L122.13423254061189,223.53297070487383 M122.14144661866612,234.5061236169205 L185.4832439782519,271.1117511567474 M122.13423254061189,223.53297070487383 L185.48130882158932,260.13554995021576" stroke="black"  stroke-width="4"  fill="red"/>
<path d="M82.00195132963836,221.11770063441543 L18.55451582467134,257.7084382274962 M18.55451582467134,257.7084382274962 L18.53866144133258,246.73335277381926 M81.99139348196042,210.1456634763269 L18.53866144133258,246.73335277381926 M82.00195132963836,221.11770063441543 L81.99139348196042,210.1456634763269 M208.68556561758032,294.3398774196793 L82.00195132963836,221.11770063441543 M145.2380125518331,331.0120861602121 L208.68556561758032,294.3398774196793 M145.2380125518331,331.0120861602121 L168.49198553025388,280.92711177369006 M168.49198553025388,280.92711177369006 L105.15019866357505,244.31057827840368 M105.15019866357505,244.31057827840368 L18.55451582467134,257.7084382274962 M105.15019866357505,244.31057827840368 L105.14156695686313,233.33660857822582 M105.14156695686313,233.33660857822582 L18.53866144133258,246.73335277381926 M208.68556561758032,283.3617436752246 L81.99139348196042,210.1456634763269 M145.2327159867554,320.03090413547056 L208.68556561758032,283.3617436752246 M145.2327159867554,320.03090413547056 L168.48863274230865,269.9500937803159 M168.48863274230865,269.9500937803159 L105.14156695686313,233.33660857822582 M208.68556561758032,294.3398774196793 L208.68556561758032,283.3617436752246 M145.2380125518331,331.0120861602121 L145.2327159867554,320.03090413547056 M168.49198553025388,280.92711177369006 L168.48863274230865,269.9500937803159" stroke="black"  stroke-width="4"  fill="red"/>
<path d="M18.55451582467134,257.7084382274962 L-44.9634952481544,294.3398774196793 M-44.9634952481544,294.3398774196793 L-44.984657947561914,283.3617436752246 M18.53866144133258,246.73335277381926 L-44.984657947561914,283.3617436752246 M18.55451582467134,257.7084382274962 L18.53866144133258,246.73335277381926 M18.55451582467134,257.7084382274962 L-4.80518784258112,307.75810165248555 M-4.80518784258112,307.75810165248555 L58.5364631066692,344.44525009845756 M58.5364631066692,344.44525009845756 L145.2380125518331,331.0120861602121 M81.7198051953668,367.7251325496766 L145.2380125518331,331.0120861602121 M-44.9634952481544,294.3398774196793 L81.7198051953668,367.7251325496766 M81.7198051953668,367.7251325496766 L81.70920026507565,356.7409022608449 M-44.984657947561914,283.3617436752246 L81.70920026507565,356.7409022608449 M18.53866144133258,246.73335277381926 L-4.8230036414815345,296.77885215864626 M-4.8230036414815345,296.77885215864626 L58.523926192511055,333.46295232959653 M58.523926192511055,333.46295232959653 L145.2327159867554,320.03090413547056 M81.70920026507565,356.7409022608449 L145.2327159867554,320.03090413547056 M-4.80518784258112,307.75810165248555 L-4.8230036414815345,296.77885215864626 M58.5364631066692,344.44525009845756 L58.523926192511055,333.46295232959653 M145.2380125518331,331.0120861602121 L145.2327159867554,320.03090413547056" stroke="black"  stroke-width="4"  fill="red"/>
<path d="M58.5364631066692,344.44525009845756 L58.523926192511055,333.46295232959653 M145.2380125518331,331.0120861602121 L145.2327159867554,320.03090413547056 M58.5364631066692,344.44525009845756 L145.2380125518331,331.0120861602121 M58.523926192511055,333.46295232959653 L145.2327159867554,320.03090413547056 M168.49198553025388,280.92711177369006 L168.48863274230865,269.9500937803159 M145.2380125518331,331.0120861602121 L168.49198553025388,280.92711177369006 M145.2327159867554,320.03090413547056 L168.48863274230865,269.9500937803159 M105.15019866357505,244.31057827840368 L105.14156695686313,233.33660857822582 M168.49198553025388,280.92711177369006 L105.15019866357505,244.31057827840368 M168.48863274230865,269.9500937803159 L105.14156695686313,233.33660857822582 M18.55451582467134,257.7084382274962 L18.53866144133258,246.73335277381926 M105.15019866357505,244.31057827840368 L18.55451582467134,257.7084382274962 M105.14156695686313,233.33660857822582 L18.53866144133258,246.73335277381926 M-4.80518784258112,307.75810165248555 L-4.8230036414815345,296.77885215864626 M18.55451582467134,257.7084382274962 L-4.80518784258112,307.75810165248555 M18.53866144133258,246.73335277381926 L-4.8230036414815345,296.77885215864626 M-4.80518784258112,307.75810165248555 L58.5364631066692,344.44525009845756 M-4.8230036414815345,296.77885215864626 L58.523926192511055,333.46295232959653" stroke="black"  stroke-width="4"  fill="red"/>
<path d="M717.11478684009,441.27401143693123 L653.8092521842476,478.1099808963595 M653.8092521842476,478.1099808963595 L653.8464937565961,467.11660596987576 M717.1573011992522,430.28368469145903 L653.8464937565961,467.11660596987576 M717.11478684009,441.27401143693123 L717.1573011992522,430.28368469145903 M844.9313963047889,514.987061928845 L717.11478684009,441.27401143693123 M781.6265347590264,551.9053233979945 L844.9313963047889,514.987061928845 M781.6265347590264,551.9053233979945 L804.4733369543484,501.4843374931263 M804.4733369543484,501.4843374931263 L740.5649997804783,464.6223123243923 M740.5649997804783,464.6223123243923 L653.8092521842476,478.1099808963595 M740.5649997804783,464.6223123243923 L740.6094907475409,453.63005310547896 M740.6094907475409,453.63005310547896 L653.8464937565961,467.11660596987576 M844.984657947562,503.99063886062424 L717.1573011992522,430.28368469145903 M781.6745237839986,540.9058522331447 L844.984657947562,503.99063886062424 M781.6745237839986,540.9058522331447 L804.5232015713542,490.48903011742493 M804.5232015713542,490.48903011742493 L740.6094907475409,453.63005310547896 M844.9313963047889,514.987061928845 L844.984657947562,503.99063886062424 M781.6265347590264,551.9053233979945 L781.6745237839986,540.9058522331447 M804.4733369543484,501.4843374931263 L804.5232015713542,490.48903011742493" stroke="black"  stroke-width="4"  fill="red"/>
<path d="M653.8092521842476,478.1099808963595 L590.4330640299055,514.987061928845 M590.4330640299055,514.987061928845 L590.4650210155693,503.99063886062424 M653.8464937565961,467.11660596987576 L590.4650210155693,503.99063886062424 M653.8092521842476,478.1099808963595 L653.8464937565961,467.11660596987576 M653.8092521842476,478.1099808963595 L630.8556610546902,528.4953034967783 M630.8556610546902,528.4953034967783 L694.7645472820981,565.4286552999322 M694.7645472820981,565.4286552999322 L781.6265347590264,551.9053233979945 M718.2509415243861,588.8648343212993 L781.6265347590264,551.9053233979945 M590.4330640299055,514.987061928845 L718.2509415243861,588.8648343212993 M718.2509415243861,588.8648343212993 L718.2936461121369,577.8623151107887 M590.4650210155693,503.99063886062424 L718.2936461121369,577.8623151107887 M653.8464937565961,467.11660596987576 L630.8910091321585,517.4977647420811 M630.8910091321585,517.4977647420811 L694.8052691474072,554.4280684665804 M694.8052691474072,554.4280684665804 L781.6745237839986,540.9058522331447 M718.2936461121369,577.8623151107887 L781.6745237839986,540.9058522331447 M630.8556610546902,528.4953034967783 L630.8910091321585,517.4977647420811 M694.7645472820981,565.4286552999322 L694.8052691474072,554.4280684665804 M781.6265347590264,551.9053233979945 L781.6745237839986,540.9058522331447" stroke="black"  stroke-width="4"  fill="red"/>
<path d="M694.7645472820981,565.4286552999322 L694.8052691474072,554.4280684665804 M781.6265347590264,551.9053233979945 L781.6745237839986,540.9058522331447 M694.7645472820981,565.4286552999322 L781.6265347590264,551.9053233979945 M694.8052691474072,554.4280684665804 L781.6745237839986,540.9058522331447 M804.4733369543484,501.4843374931263 L804.5232015713542,490.48903011742493 M781.6265347590264,551.9053233979945 L804.4733369543484,501.4843374931263 M781.6745237839986,540.9058522331447 L804.5232015713542,490.48903011742493 M740.5649997804783,464.6223123243923 L740.6094907475409,453.63005310547896 M804.4733369543484,501.4843374931263 L740.5649997804783,464.6223123243923 M804.5232015713542,490.48903011742493 L740.6094907475409,453.63005310547896 M653.8092521842476,478.1099808963595 L653.8464937565961,467.11660596987576 M740.5649997804783,464.6223123243923 L653.8092521842476,478.1099808963595 M740.6094907475409,453.63005310547896 L653.8464937565961,467.11660596987576 M630.8556610546902,528.4953034967783 L630.8910091321585,517.4977647420811 M653.8092521842476,478.1099808963595 L630.8556610546902,528.4953034967783 M653.8464937565961,467.11660596987576 L630.8910091321585,517.4977647420811 M630.8556610546902,528.4953034967783 L694.7645472820981,565.4286552999322 M630.8910091321585,517.4977647420811 L694.8052691474072,554.4280684665804" stroke="black"  stroke-width="4"  fill="red"/>
<path d="M590.4330640299055,514.987061928845 L526.9861040294949,551.9053233979945 M526.9861040294949,551.9053233979945 L527.0127645989237,540.9058522331447 M590.4650210155693,503.99063886062424 L527.0127645989237,540.9058522331447 M590.4330640299055,514.987061928845 L590.4650210155693,503.99063886062424 M718.2509415243861,588.8648343212993 L590.4330640299055,514.987061928845 M654.8044979898746,625.8656638705667 L718.2509415243861,588.8648343212993 M654.8044979898746,625.8656638705667 L677.7735856457409,575.3319224307088 M677.7735856457409,575.3319224307088 L613.8646249683414,538.3875178748598 M613.8646249683414,538.3875178748598 L526.9861040294949,551.9053233979945 M613.8646249683414,538.3875178748598 L613.898555470324,527.3891623853403 M613.898555470324,527.3891623853403 L527.0127645989237,540.9058522331447 M718.2936461121369,577.8623151107887 L590.4650210155693,503.99063886062424 M654.8419062912168,614.8600966712485 L718.2936461121369,577.8623151107887 M654.8419062912168,614.8600966712485 L677.8128899542737,564.3305188761913 M677.8128899542737,564.3305188761913 L613.898555470324,527.3891623853403 M718.2509415243861,588.8648343212993 L718.2936461121369,577.8623151107887 M654.8044979898746,625.8656638705667 L654.8419062912168,614.8600966712485 M677.7735856457409,575.3319224307088 L677.8128899542737,564.3305188761913" stroke="black"  stroke-width="4"  fill="red"/>
<path d="M526.9861040294949,551.9053233979945 L463.4682535709833,588.8648343212993 M463.4682535709833,588.8648343212993 L463.48960586485873,577.8623151107887 M527.0127645989237,540.9058522331447 L463.48960586485873,577.8623151107887 M526.9861040294949,551.9053233979945 L527.0127645989237,540.9058522331447 M526.9861040294949,551.9053233979945 L503.91006328848414,602.4032783298104 M503.91006328848414,602.4032783298104 L567.819437133038,639.4192488671559 M567.819437133038,639.4192488671559 L654.8044979898746,625.8656638705667 M591.28708527915,662.9078813723498 L654.8044979898746,625.8656638705667 M463.4682535709833,588.8648343212993 L591.28708527915,662.9078813723498 M591.28708527915,662.9078813723498 L591.3191854150391,651.8992662469898 M463.48960586485873,577.8623151107887 L591.3191854150391,651.8992662469898 M527.0127645989237,540.9058522331447 L503.93480990554144,591.399643471214 M503.93480990554144,591.399643471214 L567.8495576605301,628.4125660420383 M567.8495576605301,628.4125660420383 L654.8419062912168,614.8600966712485 M591.3191854150391,651.8992662469898 L654.8419062912168,614.8600966712485 M503.91006328848414,602.4032783298104 L503.93480990554144,591.399643471214 M567.819437133038,639.4192488671559 L567.8495576605301,628.4125660420383 M654.8044979898746,625.8656638705667 L654.8419062912168,614.8600966712485" stroke="black"  stroke-width="4"  fill="red"/>
<path d="M567.819437133038,639.4192488671559 L567.8495576605301,628.4125660420383 M654.8044979898746,625.8656638705667 L654.8419062912168,614.8600966712485 M567.819437133038,639.4192488671559 L654.8044979898746,625.8656638705667 M567.8495576605301,628.4125660420383 L654.8419062912168,614.8600966712485 M677.7735856457409,575.3319224307088 L677.8128899542737,564.3305188761913 M654.8044979898746,625.8656638705667 L677.7735856457409,575.3319224307088 M654.8419062912168,614.8600966712485 L677.8128899542737,564.3305188761913 M613.8646249683414,538.3875178748598 L613.898555470324,527.3891623853403 M677.7735856457409,575.3319224307088 L613.8646249683414,538.3875178748598 M677.8128899542737,564.3305188761913 L613.898555470324,527.3891623853403 M526.9861040294949,551.9053233979945 L527.0127645989237,540.9058522331447 M613.8646249683414,538.3875178748598 L526.9861040294949,551.9053233979945 M613.898555470324,527.3891623853403 L527.0127645989237,540.9058522331447 M503.91006328848414,602.4032783298104 L503.93480990554144,591.399643471214 M526.9861040294949,551.9053233979945 L503.91006328848414,602.4032783298104 M527.0127645989237,540.9058522331447 L503.93480990554144,591.399643471214 M503.91006328848414,602.4032783298104 L567.819437133038,639.4192488671559 M503.93480990554144,591.399643471214 L567.8495576605301,628.4125660420383" stroke="black"  stroke-width="4"  fill="red"/></svg>