<svg viewBox="0 0 800 800" xmlns="http://www.w3.org/2000/svg"><path d="M159.39183768046388,261.00238670202043 L111.53921288142294,288.599449108503 M111.53921288142294,288.599449108503 L111.45056733262777,104.19959726039514 M159.35640308795195,76.63334491520169 L111.45056733262777,104.19959726039514 M159.39183768046388,261.00238670202043 L159.35640308795195,76.63334491520169 M187.00341168562937,276.9333157672752 L159.39183768046388,261.00238670202043 M187.00341168562937,276.9333157672752 L111.53921288142294,288.599449108503 M186.99866252479814,92.54648579604299 L111.45056733262777,104.19959726039514 M187.00341168562937,276.9333157672752 L186.99866252479814,92.54648579604299 M186.99866252479814,92.54648579604299 L159.35640308795195,76.63334491520169" stroke="black"  stroke-width="4"  fill="red"/>
<path d="M111.53921288142294,288.599449108503 L-0.24100158580381503,353.06415856627746 M-0.24100158580381503,353.06415856627746 L-0.45408223289837224,168.59241621212163 M111.45056733262777,104.19959726039514 L-0.45408223289837224,168.59241621212163 M111.53921288142294,288.599449108503 L111.45056733262777,104.19959726039514 M111.53921288142294,288.599449108503 L82.27088382505195,351.4985713588264 M82.27088382505195,351.4985713588264 L162.05184079322964,397.60449378740924 M162.05184079322964,397.60449378740924 L271.1012007127784,380.72260573536795 M159.3208896467695,445.33078528559514 L271.1012007127784,380.72260573536795 M-0.24100158580381503,353.06415856627746 L159.3208896467695,445.33078528559514 M159.3208896467695,445.33078528559514 L159.28529709344366,260.75634175563755 M-0.45408223289837224,168.59241621212163 L159.28529709344366,260.75634175563755 M111.45056733262777,104.19959726039514 L82.14960774578242,167.02857361478647 M82.14960774578242,167.02857361478647 L162.01930879879626,213.08314548772273 M162.01930879879626,213.08314548772273 L271.190043580547,196.22005305785405 M159.28529709344366,260.75634175563755 L271.190043580547,196.22005305785405 M82.27088382505195,351.4985713588264 L82.14960774578242,167.02857361478647 M162.05184079322964,397.60449378740924 L162.01930879879626,213.08314548772273 M271.1012007127784,380.72260573536795 L271.190043580547,196.22005305785405" stroke="black"  stroke-width="4"  fill="red"/>
<path d="M318.9538077617077,353.06415856627746 L291.291472701914,337.10394211739117 M271.1012007127784,380.72260573536795 L318.9538077617077,353.06415856627746 M271.1012007127784,380.72260573536795 L291.291472701914,337.10394211739117 M291.4027280631561,152.6499880889808 L291.291472701914,337.10394211739117 M319.09586152643726,168.59241621212172 L291.4027280631561,152.6499880889808 M318.9538077617077,353.06415856627746 L319.09586152643726,168.59241621212172 M271.190043580547,196.22005305785405 L319.09586152643726,168.59241621212172 M271.1012007127784,380.72260573536795 L271.190043580547,196.22005305785405 M271.190043580547,196.22005305785405 L291.4027280631561,152.6499880889808" stroke="black"  stroke-width="4"  fill="red"/>
<path d="M162.05184079322964,397.60449378740924 L162.01930879879626,213.08314548772273 M271.1012007127784,380.72260573536795 L271.190043580547,196.22005305785405 M162.05184079322964,397.60449378740924 L271.1012007127784,380.72260573536795 M162.01930879879626,213.08314548772273 L271.190043580547,196.22005305785405 M300.2365614510387,317.77916071046496 L300.35773887085924,133.34675409349438 M271.1012007127784,380.72260573536795 L300.2365614510387,317.77916071046496 M271.190043580547,196.22005305785405 L300.35773887085924,133.34675409349438 M220.45560445916675,271.76188386254705 L220.48803779404562,87.38082747205334 M300.2365614510387,317.77916071046496 L220.45560445916675,271.76188386254705 M300.35773887085924,133.34675409349438 L220.48803779404562,87.38082747205334 M111.53921288142294,288.599449108503 L111.45056733262777,104.19959726039514 M220.45560445916675,271.76188386254705 L111.53921288142294,288.599449108503 M220.48803779404562,87.38082747205334 L111.45056733262777,104.19959726039514 M82.27088382505195,351.4985713588264 L82.14960774578242,167.02857361478647 M111.53921288142294,288.599449108503 L82.27088382505195,351.4985713588264 M111.45056733262777,104.19959726039514 L82.14960774578242,167.02857361478647 M82.27088382505195,351.4985713588264 L162.05184079322964,397.60449378740924 M82.14960774578242,167.02857361478647 L162.01930879879626,213.08314548772273" stroke="black"  stroke-width="4"  fill="red"/>
<path d="M639.1441010323348,537.8029513827682 L639.6435080539779,353.12580682980365 M479.5122137570942,630.481344433771 L479.83397791174286,445.7014997786608 M639.1441010323348,537.8029513827682 L479.5122137570942,630.481344433771 M639.6435080539779,353.12580682980365 L479.83397791174286,445.7014997786608 M640.1440300723208,723.3666550847984 L640.6456708256171,538.4841120233357 M479.5122137570942,630.481344433771 L640.1440300723208,723.3666550847984 M479.83397791174286,445.7014997786608 L640.6456708256171,538.4841120233357 M799.7748023508619,630.481344433771 L800.4540822328983,445.7014997786608 M640.1440300723208,723.3666550847984 L799.7748023508619,630.481344433771 M640.6456708256171,538.4841120233357 L800.4540822328983,445.7014997786608 M799.7748023508619,630.481344433771 L639.1441010323348,537.8029513827682 M800.4540822328983,445.7014997786608 L639.6435080539779,353.12580682980365" stroke="black"  stroke-width="4"  fill="red"/></svg>