<svg viewBox="0 0 800 800" xmlns="http://www.w3.org/2000/svg"><path d="M400.42841384123494,620.3573998310326 L112.5339547246574,453.58555019642614 M112.42720907100886,343.02199062385364 L112.5339547246574,453.58555019642614 M400.6433395770224,509.6093672952799 L112.42720907100886,343.02199062385364 M400.42841384123494,620.3573998310326 L400.6433395770224,509.6093672952799 M400.42841384123494,620.3573998310326 L304.4640728121808,676.1967439667062 M16.56961209467852,509.0522188783187 L304.4640728121808,676.1967439667062 M16.56961209467852,509.0522188783187 L112.5339547246574,453.58555019642614 M16.355644244284917,398.42716724001997 L112.42720907100886,343.02199062385364 M16.56961209467852,509.0522188783187 L16.355644244284917,398.42716724001997 M400.6433395770224,509.6093672952799 L304.57177635839,565.3872235380084 M16.355644244284917,398.42716724001997 L304.57177635839,565.3872235380084 M304.4640728121808,676.1967439667062 L304.57177635839,565.3872235380084" stroke="black"  stroke-width="4"  fill="red"/>
<path d="M782.150864920098,398.24227788534984 L494.2635127694068,232.94873508486245 M494.2635127694068,232.94873508486245 L494.5809142197087,122.63114379550723 M782.7899139834306,287.74021083756753 L494.5809142197087,122.63114379550723 M782.150864920098,398.24227788534984 L782.7899139834306,287.74021083756753 M782.150864920098,398.24227788534984 L687.0390626607486,453.58555019642614 M399.14887816225234,287.9242789167671 L687.0390626607486,453.58555019642614 M399.14887816225234,287.9242789167671 L494.2635127694068,232.94873508486245 M399.36094935349104,177.5451964635702 L494.5809142197087,122.63114379550723 M399.14887816225234,287.9242789167671 L399.36094935349104,177.5451964635702 M782.7899139834306,287.74021083756753 L687.5727909289911,343.02199062385375 M399.36094935349104,177.5451964635702 L687.5727909289911,343.02199062385375 M687.5727909289911,343.02199062385375 L687.0390626607486,453.58555019642614" stroke="black"  stroke-width="4"  fill="red"/>
<path d="M782.150864920098,398.24227788534984 L782.7899139834306,287.74021083756753 M304.4640728121808,676.1967439667062 L304.57177635839,565.3872235380084 M782.150864920098,398.24227788534984 L304.4640728121808,676.1967439667062 M782.7899139834306,287.74021083756753 L304.57177635839,565.3872235380084 M400.85874666944085,732.1611482236244 L401.0746367374028,621.2901422386801 M304.4640728121808,676.1967439667062 L400.85874666944085,732.1611482236244 M304.57177635839,565.3872235380084 L401.0746367374028,621.2901422386801 M878.5407653061125,453.58555019642614 L879.2879848816519,343.02199062385375 M400.85874666944085,732.1611482236244 L878.5407653061125,453.58555019642614 M401.0746367374028,621.2901422386801 L879.2879848816519,343.02199062385375 M878.5407653061125,453.58555019642614 L782.150864920098,398.24227788534984 M879.2879848816519,343.02199062385375 L782.7899139834306,287.74021083756753" stroke="black"  stroke-width="4"  fill="red"/>
<path d="M398.72614489067996,178.0949532548004 L398.93727719538435,67.83885177637569 M-78.96774792070636,453.5855501964261 L-79.28798488165182,343.02199062385364 M398.72614489067996,178.0949532548004 L-78.96774792070636,453.5855501964261 M398.93727719538435,67.83885177637569 L-79.28798488165182,343.02199062385364 M16.56961209467852,509.0522188783187 L16.355644244284917,398.42716724001997 M-78.96774792070636,453.5855501964261 L16.56961209467852,509.0522188783187 M-79.28798488165182,343.02199062385364 L16.355644244284917,398.42716724001997 M494.2635127694068,232.94873508486245 L494.5809142197087,122.63114379550723 M16.56961209467852,509.0522188783187 L494.2635127694068,232.94873508486245 M16.355644244284917,398.42716724001997 L494.5809142197087,122.63114379550723 M494.2635127694068,232.94873508486245 L398.72614489067996,178.0949532548004 M494.5809142197087,122.63114379550723 L398.93727719538435,67.83885177637569" stroke="black"  stroke-width="4"  fill="red"/></svg>