<svg viewBox="0 0 800 800" xmlns="http://www.w3.org/2000/svg"><path d="M496.8226063418639,676.1967439667062 L112.5339547246574,453.58555019642614 M112.42720907100886,343.02199062385364 L112.5339547246574,453.58555019642614 M497.14571698049144,565.3872235380084 L112.42720907100886,343.02199062385364 M496.8226063418639,676.1967439667062 L497.14571698049144,565.3872235380084 M400.85874666944085,732.1611482236244 L496.8226063418639,676.1967439667062 M16.56961209467852,509.0522188783187 L400.85874666944085,732.1611482236244 M16.56961209467852,509.0522188783187 L112.5339547246574,453.58555019642614 M16.355644244284917,398.42716724001997 L112.42720907100886,343.02199062385364 M16.56961209467852,509.0522188783187 L16.355644244284917,398.42716724001997 M401.0746367374028,621.2901422386801 L497.14571698049144,565.3872235380084 M16.355644244284917,398.42716724001997 L401.0746367374028,621.2901422386801 M400.85874666944085,732.1611482236244 L401.0746367374028,621.2901422386801" stroke="black"  stroke-width="4"  fill="red"/>
<path d="M878.5407653061125,453.58555019642614 L494.2635127694068,232.94873508486245 M494.2635127694068,232.94873508486245 L494.5809142197087,122.63114379550723 M879.2879848816519,343.02199062385375 L494.5809142197087,122.63114379550723 M878.5407653061125,453.58555019642614 L879.2879848816519,343.02199062385375 M783.4303879053215,509.0522188783188 L878.5407653061125,453.58555019642614 M399.14887816225234,287.9242789167671 L783.4303879053215,509.0522188783188 M399.14887816225234,287.9242789167671 L494.2635127694068,232.94873508486245 M399.36094935349104,177.5451964635702 L494.5809142197087,122.63114379550723 M399.14887816225234,287.9242789167671 L399.36094935349104,177.5451964635702 M784.0722914565023,398.4271672400201 L879.2879848816519,343.02199062385375 M399.36094935349104,177.5451964635702 L784.0722914565023,398.4271672400201 M783.4303879053215,509.0522188783188 L784.0722914565023,398.4271672400201" stroke="black"  stroke-width="4"  fill="red"/>
<path d="M398.72614489067996,178.0949532548004 L398.93727719538435,67.83885177637569 M-78.96774792070636,453.5855501964261 L-79.28798488165182,343.02199062385364 M398.72614489067996,178.0949532548004 L-78.96774792070636,453.5855501964261 M398.93727719538435,67.83885177637569 L-79.28798488165182,343.02199062385364 M16.56961209467852,509.0522188783187 L16.355644244284917,398.42716724001997 M-78.96774792070636,453.5855501964261 L16.56961209467852,509.0522188783187 M-79.28798488165182,343.02199062385364 L16.355644244284917,398.42716724001997 M494.2635127694068,232.94873508486245 L494.5809142197087,122.63114379550723 M16.56961209467852,509.0522188783187 L494.2635127694068,232.94873508486245 M16.355644244284917,398.42716724001997 L494.5809142197087,122.63114379550723 M494.2635127694068,232.94873508486245 L398.72614489067996,178.0949532548004 M494.5809142197087,122.63114379550723 L398.93727719538435,67.83885177637569" stroke="black"  stroke-width="4"  fill="red"/></svg>