<svg viewBox="0 0 800 800" xmlns="http://www.w3.org/2000/svg"><path d="M590.0880834734214,534.4798139772861 L590.2994793392879,45.91582534264478 M209.74466276358604,753.92474724337 L209.53284330584492,265.1155455204961 M590.0880834734214,534.4798139772861 L630.0839859966155,563.9009556356591 M630.0839859966155,563.9009556356591 L656.7232917673838,597.9932769636141 M656.7232917673838,597.9932769636141 L668.4526941854548,634.7788130452691 M668.4526941854548,634.7788130452691 L664.583247555305,672.1213138220053 M664.583247555305,672.1213138220053 L645.3320945544481,707.8500407763131 M645.3320945544481,707.8500407763131 L611.811637515662,739.8860217360755 M611.811637515662,739.8860217360755 L565.9663250413208,766.3634666393565 M565.9663250413208,766.3634666393565 L510.4605205082007,785.7391027744386 M510.4605205082007,785.7391027744386 L448.5236333967357,796.8829121207154 M448.5236333967357,796.8829121207154 L383.7616247239743,799.1446955368634 M383.7616247239743,799.1446955368634 L319.9459519519706,792.3924678123838 M319.9459519519706,792.3924678123838 L260.7926476570203,777.0202413280965 M260.7926476570203,777.0202413280965 L209.74466276358604,753.92474724337 M590.2994793392879,45.91582534264478 L630.3398981373807,75.30406277802706 M630.3398981373807,75.30406277802706 L657.0088795395152,109.35826666713842 M657.0088795395152,109.35826666713842 L668.7513808735364,146.10268733030478 M668.7513808735364,146.10268733030478 L664.877678992008,183.4034641907738 M664.877678992008,183.4034641907738 L645.6051466530504,219.09228357524273 M645.6051466530504,219.09228357524273 L612.04741439777,251.09249261506537 M612.04741439777,251.09249261506537 L566.1510890268754,277.5403802037546 M566.1510890268754,277.5403802037546 L510.5834985850152,296.89439142034144 M510.5834985850152,296.89439142034144 L448.577651374316,308.0257650158909 M448.577651374316,308.0257650158909 L383.7435304098566,310.2850245856647 M383.7435304098566,310.2850245856647 L319.85680128439844,303.5403315936447 M319.85680128439844,303.5403315936447 L260.6376423589557,288.18526052144756 M260.6376423589557,288.18526052144756 L209.53284330584492,265.1155455204961 M209.74466276358604,753.92474724337 L169.77055053105124,724.4525980092619 M169.77055053105124,724.4525980092619 L143.1916237437207,690.3209543247256 M143.1916237437207,690.3209543247256 L131.54735687287018,653.516789389048 M131.54735687287018,653.516789389048 L135.50719208715554,616.180620898874 M135.50719208715554,616.180620898874 L154.83327980323202,580.4817367197329 M154.83327980323202,580.4817367197329 L188.39605105514707,548.4922724118461 M188.39605105514707,548.4922724118461 L234.24136355160476,522.0673616434229 M234.24136355160476,522.0673616434229 L289.70485389672285,502.73824217973544 M289.70485389672285,502.73824217973544 L351.56680627728315,491.6242756401375 M351.56680627728315,491.6242756401375 L416.2384263229614,489.3688245175557 M416.2384263229614,489.3688245175557 L479.968963514636,496.10242337852947 M479.968963514636,496.10242337852947 L539.0618888314801,511.4353274993982 M539.0618888314801,511.4353274993982 L590.0880834734214,534.4798139772861 M209.53284330584492,265.1155455204961 L169.51426331836018,235.67630081282044 M169.51426331836018,235.67630081282044 L142.90579534406902,201.58277480107265 M142.90579534406902,201.58277480107265 L131.2486191264636,164.8197253947195 M131.2486191264636,164.8197253947195 L135.21291085812027,127.5252807831373 M135.21291085812027,127.5252807831373 L154.5605447675701,91.8663039962833 M154.5605447675701,91.8663039962833 L188.1606854560268,59.912611331598896 M188.1606854560268,59.912611331598896 L234.05701084913636,33.51725756525849 M234.05701084913636,33.51725756525849 L289.58219288305935,14.209762743376132 M289.58219288305935,14.209762743376132 L351.51293850751136,3.108231777006381 M351.51293850751136,3.108231777006381 L416.25646957870345,0.8553044631365765 M416.25646957870345,0.8553044631365765 L480.05787355448956,7.5813687024493674 M480.05787355448956,7.5813687024493674 L539.2165190574443,22.897117645116566 M539.2165190574443,22.897117645116566 L590.2994793392879,45.91582534264478" stroke="black"  stroke-width="4"  fill="red"/></svg>