<svg viewBox="0 0 800 800" xmlns="http://www.w3.org/2000/svg"><path d="M377.47953781719553,385.72576870369517 L474.0786008992731,329.83108976436097 M377.63955835239494,496.86841128885055 L474.1318233289348,440.9127522571921 M377.47953781719553,385.72576870369517 L377.63955835239494,496.86841128885055 M474.0786008992731,329.83108976436097 L474.1318233289348,440.9127522571921 M667.4378120367776,665.4798095682828 L763.9297210235558,609.151527751049 M377.63955835239494,496.86841128885055 L667.4378120367776,665.4798095682828 M474.1318233289348,440.9127522571921 L763.9297210235558,609.151527751049 M667.5988993729196,554.1542407572936 L764.1976052794879,497.8869315420487 M667.4378120367776,665.4798095682828 L667.5988993729196,554.1542407572936 M763.9297210235558,609.151527751049 L764.1976052794879,497.8869315420487 M667.5988993729196,554.1542407572936 L377.47953781719553,385.72576870369517 M764.1976052794879,497.8869315420487 L474.0786008992731,329.83108976436097" stroke="black"  stroke-width="4"  fill="red"/>
<path d="M133.96738355235766,246.68403594655337 L133.53494397705663,134.52019043171725 M36.34414942814266,302.8595846184244 L35.8023947205121,190.6333218272863 M133.96738355235766,246.68403594655337 L36.34414942814266,302.8595846184244 M133.53494397705663,134.52019043171725 L35.8023947205121,190.6333218272863 M327.2649746756738,472.13942234807405 L327.0468167925675,359.7259124085649 M36.34414942814266,302.8595846184244 L327.2649746756738,472.13942234807405 M35.8023947205121,190.6333218272863 L327.0468167925675,359.7259124085649 M424.8903838859659,415.5868575113087 L424.781548424193,303.2357620356014 M327.2649746756738,472.13942234807405 L424.8903838859659,415.5868575113087 M327.0468167925675,359.7259124085649 L424.781548424193,303.2357620356014 M424.8903838859659,415.5868575113087 L133.96738355235766,246.68403594655337 M424.781548424193,303.2357620356014 L133.53494397705663,134.52019043171725" stroke="black"  stroke-width="4"  fill="red"/></svg>