<svg viewBox="0 0 800 800" xmlns="http://www.w3.org/2000/svg"><path d="M601.262993361065,702.3848667663682 L601.7136979093043,516.1234047931179 M762.7053625404009,702.3848667663682 L763.336348907936,516.1234047931179 M601.262993361065,702.3848667663682 L762.7053625404009,702.3848667663682 M601.7136979093043,516.1234047931179 L763.336348907936,516.1234047931179 M762.0757822706207,608.9164369347576 L762.7053625404009,422.7584808534668 M762.7053625404009,702.3848667663682 L762.0757822706207,608.9164369347576 M763.336348907936,516.1234047931179 L762.7053625404009,422.7584808534668 M600.813293168365,608.9164369347576 L601.262993361065,422.75848085346666 M762.0757822706207,608.9164369347576 L600.813293168365,608.9164369347576 M762.7053625404009,422.7584808534668 L601.262993361065,422.75848085346666 M600.813293168365,608.9164369347576 L601.262993361065,702.3848667663682 M601.262993361065,422.75848085346666 L601.7136979093043,516.1234047931179" stroke="black"  stroke-width="4"  fill="red"/>
<path d="M197.65707041272543,283.4108146216213 L197.65707041272543,97.61513323363181 M36.84253266908712,376.1540832013165 L36.66365109206407,190.25489523623213 M197.65707041272543,283.4108146216213 L36.84253266908712,376.1540832013165 M197.65707041272543,97.61513323363181 L36.66365109206407,190.25489523623213 M197.65707041272543,469.1036771838586 L197.65707041272543,283.1009818758094 M36.84253266908712,376.1540832013165 L197.65707041272543,469.1036771838586 M36.66365109206407,190.25489523623213 L197.65707041272543,283.1009818758094 M358.4716081563639,376.1540832013165 L358.65048973338685,190.25489523623213 M197.65707041272543,469.1036771838586 L358.4716081563639,376.1540832013165 M197.65707041272543,283.1009818758094 L358.65048973338685,190.25489523623213 M358.4716081563639,376.1540832013165 L197.65707041272543,283.4108146216213 M358.65048973338685,190.25489523623213 L197.65707041272543,97.61513323363181" stroke="black"  stroke-width="4"  fill="red"/></svg>