<svg viewBox="0 0 800 800" xmlns="http://www.w3.org/2000/svg"><path d="M418.88958840617465,454.1875004688999 L398.5507081990738,429.4905494826211 M398.5507081990738,429.4905494826211 L368.3048878058926,408.490202246615 M368.3048878058926,408.490202246615 L330.027030985069,392.48351260123843 M330.027030985069,392.48351260123843 L286.0862862335215,382.4583401185346 M286.0862862335215,382.4583401185346 L239.19963269143616,379.03313694971905 M239.19963269143616,379.03313694971905 L192.2652336649936,382.4190349771176 M192.2652336649936,382.4190349771176 L148.18390105925377,392.40730857468213 M148.18390105925377,392.40730857468213 L109.6815152225513,408.38179862897766 M109.6815152225513,408.38179862897766 L79.14093571803687,429.356685871409 M79.14093571803687,429.356685871409 L58.45528326631597,454.0364087907319 M58.45528326631597,454.0364087907319 L48.91015273910057,480.8951813347709 M48.91015273910057,480.8951813347709 L51.10303848383069,508.2706877104075 M51.10303848383069,508.2706877104075 L64.90473424180175,534.4667264182427 M64.90473424180175,534.4667264182427 L89.46591830680416,557.8582795231447 M89.46591830680416,557.8582795231447 L123.26818496041835,576.9928132886964 M123.26818496041835,576.9928132886964 L164.21731345042886,590.6811443978335 M164.21731345042886,590.6811443978335 L209.77341514185267,598.071830320636 M208.84057087656774,287.69375903052253 L209.77341514185267,598.071830320636 M208.84057087656774,287.69375903052253 L163.23363766625047,280.31124505294497 M163.23363766625047,280.31124505294497 L122.2388746521284,266.63805155237003 M122.2388746521284,266.63805155237003 L88.39900471425256,247.52468323705364 M88.39900471425256,247.52468323705364 L63.81057845957048,224.159012375344 M63.81057845957048,224.159012375344 L49.99368224694172,197.9919693795897 M49.99368224694172,197.9919693795897 L47.79856683936566,170.64677594192415 M47.79856683936566,170.64677594192415 L57.35456171397891,143.81775578075076 M57.35456171397891,143.81775578075076 L78.06348568262672,119.16538158725979 M78.06348568262672,119.16538158725979 L108.63829297379016,98.2137452155664 M108.63829297379016,98.2137452155664 L147.18373995468338,82.25696775258314 M147.18373995468338,82.25696775258314 L191.31430451663525,72.27977127030721 M191.31430451663525,72.27977127030721 L238.3010674703842,68.89762860584284 M238.3010674703842,68.89762860584284 L285.23998781277055,72.31903281872997 M285.23998781277055,72.31903281872997 L329.2296787804503,82.33308727408024 M329.2296787804503,82.33308727408024 L367.5501402251756,98.32202864866548 M367.5501402251756,98.32202864866548 L397.829589047485,119.29909683188026 M397.829589047485,119.29909683188026 L418.1910355376882,143.96868005728436 M418.1910355376882,143.96868005728436 L418.88958840617465,454.1875004688999 M209.77341514185267,598.071830320636 L200.98897258881155,573.6605934353349 M200.98897258881155,573.6605934353349 L201.90524421021937,548.7192041852065 M201.90524421021937,548.7192041852065 L212.47043295635942,524.5246515591767 M212.47043295635942,524.5246515591767 L232.1387875944222,502.3146507242759 M232.1387875944222,502.3146507242759 L259.9002995858815,483.224069592894 M259.9002995858815,483.224069592894 L294.33238143713163,468.22766122828205 M294.33238143713163,468.22766122828205 L333.6732603143488,458.0905204154768 M333.6732603143488,458.0905204154768 L375.911783762127,453.3295502763789 M375.911783762127,453.3295502763789 L418.88958840617465,454.1875004688999 M208.84057087656774,287.69375903052253 L200.04648138219707,263.30951717644996 M200.04648138219707,263.30951717644996 L200.96394442674514,238.39571904708987 M200.96394442674514,238.39571904708987 L211.54109081713008,214.22794085001556 M211.54109081713008,214.22794085001556 L231.23154671189198,192.04252650374156 M231.23154671189198,192.04252650374156 L259.0241653465474,172.97308495318396 M259.0241653465474,172.97308495318396 L293.4947642850228,157.99328664695634 M293.4947642850228,157.99328664695634 L332.8796015061015,147.86737578928023 M332.8796015061015,147.86737578928023 L375.16528117479345,143.1116804333011 M375.16528117479345,143.1116804333011 L418.1910355376882,143.96868005728436" stroke="black"  stroke-width="4"  fill="red"/>
<path d="M557.7646298567935,510.60605407394974 L530.2866472985038,488.322479681869 M530.2866472985038,488.322479681869 L494.1556581500422,470.67680574261817 M494.1556581500422,470.67680574261817 L451.6086865858478,458.75833692162587 M451.6086865858478,458.75833692162587 L405.2772860972642,453.302301535182 M405.2772860972642,453.302301535182 L358.02540854265317,454.64514736653825 M358.02540854265317,454.64514736653825 L312.7734177566757,462.70411755830276 M312.7734177566757,462.70411755830276 L272.3190044465248,476.98215663232804 M272.3190044465248,476.98215663232804 L239.16513931859956,496.59823432495784 M239.16513931859956,496.59823432495784 L215.36570831138565,520.3411181635964 M215.36570831138565,520.3411181635964 L202.3985295087908,546.7432884985975 M202.3985295087908,546.7432884985975 L201.07241413359438,574.1713608152087 M201.07241413359438,574.1713608152087 L211.4763428010264,600.9263729446758 M211.4763428010264,600.9263729446758 L232.97197638028692,625.3491775291355 M232.97197638028692,625.3491775291355 L264.2315515623993,645.9237267968574 M264.2315515623993,645.9237267968574 L303.31947963129744,661.3716066325231 M303.31947963129744,661.3716066325231 L347.8119670393429,670.732172805965 M347.8119670393429,670.732172805965 L394.9476518235982,673.4230318538706 M394.22124493190245,362.96169384634254 L394.9476518235982,673.4230318538706 M394.22124493190245,362.96169384634254 L347.0328988572229,360.27380676730627 M347.0328988572229,360.27380676730627 L302.49074553198216,350.92357994397287 M302.49074553198216,350.92357994397287 L263.3592351379733,335.49276634811315 M263.3592351379733,335.49276634811315 L232.06486644010235,314.94095298759987 M232.06486644010235,314.94095298759987 L210.54538157981906,290.54514559553695 M210.54538157981906,290.54514559553695 L200.13001266267773,263.8197196296194 M200.13001266267773,263.8197196296194 L201.45779381800608,236.42198961860595 M201.45779381800608,236.42198961860595 L214.43962608630383,210.04903802738932 M214.43962608630383,210.04903802738932 L238.26577793286586,186.33243945594415 M238.26577793286586,186.33243945594415 L271.4567683619406,166.7380851145009 M271.4567683619406,166.7380851145009 L311.95641139141026,152.4758617719218 M311.95641139141026,152.4758617719218 L357.2589413674424,144.42581990844894 M357.2589413674424,144.42581990844894 L404.5635492535971,143.0844618826227 M404.5635492535971,143.0844618826227 L450.94661974808037,148.53445243582485 M450.94661974808037,148.53445243582485 L493.5410139513875,160.43971823762752 M493.5410139513875,160.43971823762752 L529.7122499125252,178.06584884836388 M529.7122499125252,178.06584884836388 L557.2208128667512,200.32475034230322 M557.2208128667512,200.32475034230322 L557.7646298567935,510.60605407394974 M394.9476518235982,673.4230318538706 L378.9399711863083,650.2564928285339 M378.9399711863083,650.2564928285339 L372.33578844994133,625.5898481614406 M372.33578844994133,625.5898481614406 L375.46851150410714,600.6871371777994 M375.46851150410714,600.6871371777994 L388.1727118921008,576.8231472023899 M388.1727118921008,576.8231472023899 L409.7934911284559,555.2183380330465 M409.7934911284559,555.2183380330465 L439.22122465914487,536.9764528327233 M439.22122465914487,536.9764528327233 L474.9486293755955,523.0286893806834 M474.9486293755955,523.0286893806834 L515.1480084116672,514.0865833144788 M515.1480084116672,514.0865833144788 L557.7646298567935,510.60605407394974 M394.22124493190245,362.96169384634254 L378.19579838328013,339.82074531760827 M378.19579838328013,339.82074531760827 L371.584369094404,315.18135762774943 M371.584369094404,315.18135762774943 L374.7207252595816,290.30617432915915 M374.7207252595816,290.30617432915915 L387.4392411451406,266.4685731146259 M387.4392411451406,266.4685731146259 L409.0842756477032,244.88766234742025 M409.0842756477032,244.88766234742025 L438.544956579776,226.6659614140567 M438.544956579776,226.6659614140567 L474.31231291101403,212.7336344555489 M474.31231291101403,212.7336344555489 L514.5566061374527,203.8014265745619 M514.5566061374527,203.8014265745619 L557.2208128667512,200.32475034230322" stroke="black"  stroke-width="4"  fill="red"/>
<path d="M643.1610005957192,520.8882295822787 L642.7124737235902,210.59554385612546 M481.64055691009804,720.8718182415322 L481.01081954238134,410.358093533742 M643.1610005957192,520.8882295822787 L682.0301570298006,534.9336977556086 M682.0301570298006,534.9336977556086 L713.9627752722681,553.9708038793466 M713.9627752722681,553.9708038793466 L737.1028662618733,576.8967941911424 M737.1028662618733,576.8967941911424 L750.1026306946287,602.3823746643903 M750.1026306946287,602.3823746643903 L752.2014331606343,628.9483710330898 M752.2014331606343,628.9483710330898 L743.2711206179185,655.0511962009424 M743.2711206179185,655.0511962009424 L723.825031828124,679.1725306973036 M723.825031828124,679.1725306973036 L694.9894141055695,699.9077355180526 M694.9894141055695,699.9077355180526 L658.4386591269949,716.0483506905215 M658.4386591269949,716.0483506905215 L616.2987421885903,726.6528477968428 M616.2987421885903,726.6528477968428 L571.0228109248618,731.1023713941571 M571.0228109248618,731.1023713941571 L525.2479058888104,729.1371333540507 M525.2479058888104,729.1371333540507 L481.64055691009804,720.8718182415322 M642.7124737235902,210.59554385612546 L681.624980034914,224.6254669336795 M681.624980034914,224.6254669336795 L713.5931986771405,243.64150839514457 M713.5931986771405,243.64150839514457 L736.759071223865,266.5421386506763 M736.759071223865,266.5421386506763 L749.7732933522082,291.99953757071535 M749.7732933522082,291.99953757071535 L751.8743779296204,318.53616871490794 M751.8743779296204,318.53616871490794 L742.9340255445975,344.61015160502313 M742.9340255445975,344.61015160502313 L723.4661457593292,368.7048429370918 M723.4661457593292,368.7048429370918 L694.5982435423728,389.4171521580921 M694.5982435423728,389.4171521580921 L658.0065837742907,405.5399497794558 M658.0065837742907,405.5399497794558 L615.8195228171749,416.13274289347737 M615.8195228171749,416.13274289347737 L570.4929574761763,420.57735616637126 M570.4929574761763,420.57735616637126 L524.6668839307563,418.61428684899704 M524.6668839307563,418.61428684899704 L481.01081954238134,410.358093533742 M481.64055691009804,720.8718182415322 L442.739751560484,706.7890087753332 M442.739751560484,706.7890087753332 L410.80918075849024,687.710235851877 M410.80918075849024,687.710235851877 L387.7043070052556,664.7478844521285 M387.7043070052556,664.7478844521285 L374.76484887674496,639.2395710814696 M374.76484887674496,639.2395710814696 L372.73766797366477,612.669642320891 M372.73766797366477,612.669642320891 L381.73440868335274,586.5826330995191 M381.73440868335274,586.5826330995191 L401.2265786854606,562.4932173616068 M401.2265786854606,562.4932173616068 L430.07737392223623,541.7987218117976 M430.07737392223623,541.7987218117976 L466.6089129600073,525.6982731266987 M466.6089129600073,525.6982731266987 L508.699645350737,515.1242110992152 M508.699645350737,515.1242110992152 L553.9076909985789,510.6884189776248 M553.9076909985789,510.6884189776248 L599.6115255768298,512.6475185273051 M599.6115255768298,512.6475185273051 L643.1610005957192,520.8882295822787 M481.01081954238134,410.358093533742 L442.06659382373596,396.2908287008728 M442.06659382373596,396.2908287008728 L410.1004273887032,377.2331200144175 M410.1004273887032,377.2331200144175 L386.9698509469482,354.29612828534596 M386.9698509469482,354.29612828534596 L374.0160700110155,328.8159962185364 M374.0160700110155,328.8159962185364 L371.9867670497639,302.2754326656733 M371.9867670497639,302.2754326656733 L380.9936960407176,276.2172658897481 M380.9936960407176,276.2172658897481 L400.5077599294931,252.15449365460006 M400.5077599294931,252.15449365460006 L429.39087343275395,231.48289413625173 M429.39087343275395,231.48289413625173 L465.96327416199944,215.40026343654176 M465.96327416199944,215.40026343654176 L508.101040501855,204.83790572415148 M508.101040501855,204.83790572415148 L553.3595684013337,200.40702406431956 M553.3595684013337,200.40702406431956 L599.1144126490104,202.36395483446267 M599.1144126490104,202.36395483446267 L642.7124737235902,210.59554385612546" stroke="black"  stroke-width="4"  fill="red"/></svg>