<svg viewBox="0 0 800 800" xmlns="http://www.w3.org/2000/svg"><path d="M400.1674132020406,400.04795206041626 L287.2515122741993,465.16762266733133 M287.2515122741993,465.16762266733133 L287.04233896244284,30.04675960431075 M400.0837996290276,-35.00020974864549 L287.04233896244284,30.04675960431075 M400.1674132020406,400.04795206041626 L400.0837996290276,-35.00020974864549 M465.3213262407151,437.639520246595 L400.1674132020406,400.04795206041626 M465.3213262407151,437.639520246595 L287.2515122741993,465.16762266733133 M465.3101198382208,2.5493843791119843 L287.04233896244284,30.04675960431075 M465.3213262407151,437.639520246595 L465.3101198382208,2.5493843791119843 M465.3101198382208,2.5493843791119843 L400.0837996290276,-35.00020974864549" stroke="black"  stroke-width="4"  fill="red"/>
<path d="M287.2515122741993,465.16762266733133 L23.488266778683,617.2823870516255 M23.488266778683,617.2823870516255 L22.985469004516972,181.9918868727174 M287.04233896244284,30.04675960431075 L22.985469004516972,181.9918868727174 M287.2515122741993,465.16762266733133 L287.04233896244284,30.04675960431075 M287.2515122741993,465.16762266733133 L218.18822143212842,613.5881343172597 M218.18822143212842,613.5881343172597 L406.4441148293843,722.382412394916 M406.4441148293843,722.382412394916 L663.7634734357503,682.5469047970669 M400,835.0002097486455 L663.7634734357503,682.5469047970669 M23.488266778683,617.2823870516255 L400,835.0002097486455 M400,835.0002097486455 L399.91601369325116,399.4673697641214 M22.985469004516972,181.9918868727174 L399.91601369325116,399.4673697641214 M287.04233896244284,30.04675960431075 L217.90205117899765,178.30175082419345 M217.90205117899765,178.30175082419345 L406.3673503995155,286.97485907515073 M406.3673503995155,286.97485907515073 L663.9731123530978,247.18370274580667 M399.91601369325116,399.4673697641214 L663.9731123530978,247.18370274580667 M218.18822143212842,613.5881343172597 L217.90205117899765,178.30175082419345 M406.4441148293843,722.382412394916 L406.3673503995155,286.97485907515073 M663.7634734357503,682.5469047970669 L663.9731123530978,247.18370274580667" stroke="black"  stroke-width="4"  fill="red"/>
<path d="M776.6793324793723,617.2823870516256 L711.4056406356801,579.6217106122954 M663.7634734357503,682.5469047970669 L776.6793324793723,617.2823870516256 M663.7634734357503,682.5469047970669 L711.4056406356801,579.6217106122954 M711.6681654062743,144.37318482530353 L711.4056406356801,579.6217106122954 M777.014530995483,181.9918868727175 L711.6681654062743,144.37318482530353 M776.6793324793723,617.2823870516256 L777.014530995483,181.9918868727175 M663.9731123530978,247.18370274580667 L777.014530995483,181.9918868727175 M663.7634734357503,682.5469047970669 L663.9731123530978,247.18370274580667 M663.9731123530978,247.18370274580667 L711.6681654062743,144.37318482530353" stroke="black"  stroke-width="4"  fill="red"/>
<path d="M406.4441148293843,722.382412394916 L406.3673503995155,286.97485907515073 M663.7634734357503,682.5469047970669 L663.9731123530978,247.18370274580667 M406.4441148293843,722.382412394916 L663.7634734357503,682.5469047970669 M406.3673503995155,286.97485907515073 L663.9731123530978,247.18370274580667 M732.5130043221784,534.021806490831 L732.7989417726026,98.82412525804313 M663.7634734357503,682.5469047970669 L732.5130043221784,534.021806490831 M663.9731123530978,247.18370274580667 L732.7989417726026,98.82412525804313 M544.2571108690122,425.4367018001331 L544.3336424959255,-9.6398103826848 M732.5130043221784,534.021806490831 L544.2571108690122,425.4367018001331 M732.7989417726026,98.82412525804313 L544.3336424959255,-9.6398103826848 M287.2515122741993,465.16762266733133 L287.04233896244284,30.04675960431075 M544.2571108690122,425.4367018001331 L287.2515122741993,465.16762266733133 M544.3336424959255,-9.6398103826848 L287.04233896244284,30.04675960431075 M218.18822143212842,613.5881343172597 L217.90205117899765,178.30175082419345 M287.2515122741993,465.16762266733133 L218.18822143212842,613.5881343172597 M287.04233896244284,30.04675960431075 L217.90205117899765,178.30175082419345 M218.18822143212842,613.5881343172597 L406.4441148293843,722.382412394916 M217.90205117899765,178.30175082419345 L406.3673503995155,286.97485907515073" stroke="black"  stroke-width="4"  fill="red"/></svg>