<svg viewBox="0 0 800 800" xmlns="http://www.w3.org/2000/svg"><path d="M539.734913002708,319.413054077786 L400.54276698887355,399.6864843476553 M400.54276698887355,399.6864843476553 L400.3880230800199,77.78928527981844 M539.734913002708,-2.3945059130906543 L400.3880230800199,77.78928527981844 M539.734913002708,319.413054077786 L539.734913002708,-2.3945059130906543 M818.2738629703927,480.0491073178245 L539.734913002708,319.413054077786 M679.0818029253963,560.5010717254256 L818.2738629703927,480.0491073178245 M679.0818029253963,560.5010717254256 L729.9418818326303,450.62398424334845 M729.9418818326303,450.62398424334845 L590.6724283203299,370.29402531108497 M590.6724283203299,370.29402531108497 L400.54276698887355,399.6864843476553 M590.6724283203299,370.29402531108497 L590.7290455006003,48.429636492825466 M590.7290455006003,48.429636492825466 L400.3880230800199,77.78928527981844 M818.5836949503345,158.06226867650173 L539.734913002708,-2.3945059130906543 M679.2368912836854,238.42459317880184 L818.5836949503345,158.06226867650173 M679.2368912836854,238.42459317880184 L730.1534149311635,128.6699560142721 M730.1534149311635,128.6699560142721 L590.7290455006003,48.429636492825466 M818.2738629703927,480.0491073178245 L818.5836949503345,158.06226867650173 M679.0818029253963,560.5010717254256 L679.2368912836854,238.42459317880184 M729.9418818326303,450.62398424334845 L730.1534149311635,128.6699560142721" stroke="black"  stroke-width="4"  fill="red"/>
<path d="M400.54276698887355,399.6864843476553 L261.1959630350235,480.0491073178245 M261.1959630350235,480.0491073178245 L260.8861310550817,158.06226867650173 M400.3880230800199,77.78928527981844 L260.8861310550817,158.06226867650173 M400.54276698887355,399.6864843476553 L400.3880230800199,77.78928527981844 M400.54276698887355,399.6864843476553 L349.4505722272306,509.4861998749882 M349.4505722272306,509.4861998749882 L488.7200256981692,589.9709027717388 M488.7200256981692,589.9709027717388 L679.0818029253963,560.5010717254256 M539.7349130027081,641.0425266384858 L679.0818029253963,560.5010717254256 M261.1959630350235,480.0491073178245 L539.7349130027081,641.0425266384858 M539.7349130027081,641.0425266384858 L539.734913002708,318.8764080201913 M260.8861310550817,158.06226867650173 L539.734913002708,318.8764080201913 M400.3880230800199,77.78928527981844 L349.2388669040456,187.46655077695698 M349.2388669040456,187.46655077695698 L488.6632362930626,267.861613688276 M488.6632362930626,267.861613688276 L679.2368912836854,238.42459317880184 M539.734913002708,318.8764080201913 L679.2368912836854,238.42459317880184 M349.4505722272306,509.4861998749882 L349.2388669040456,187.46655077695698 M488.7200256981692,589.9709027717388 L488.6632362930626,267.861613688276 M679.0818029253963,560.5010717254256 L679.2368912836854,238.42459317880184" stroke="black"  stroke-width="4"  fill="red"/>
<path d="M488.7200256981692,589.9709027717388 L488.6632362930626,267.861613688276 M679.0818029253963,560.5010717254256 L679.2368912836854,238.42459317880184 M488.7200256981692,589.9709027717388 L679.0818029253963,560.5010717254256 M488.6632362930626,267.861613688276 L679.2368912836854,238.42459317880184 M729.9418818326303,450.62398424334845 L730.1534149311635,128.6699560142721 M679.0818029253963,560.5010717254256 L729.9418818326303,450.62398424334845 M679.2368912836854,238.42459317880184 L730.1534149311635,128.6699560142721 M590.6724283203299,370.29402531108497 L590.7290455006003,48.429636492825466 M729.9418818326303,450.62398424334845 L590.6724283203299,370.29402531108497 M730.1534149311635,128.6699560142721 L590.7290455006003,48.429636492825466 M400.54276698887355,399.6864843476553 L400.3880230800199,77.78928527981844 M590.6724283203299,370.29402531108497 L400.54276698887355,399.6864843476553 M590.7290455006003,48.429636492825466 L400.3880230800199,77.78928527981844 M349.4505722272306,509.4861998749882 L349.2388669040456,187.46655077695698 M400.54276698887355,399.6864843476553 L349.4505722272306,509.4861998749882 M400.3880230800199,77.78928527981844 L349.2388669040456,187.46655077695698 M349.4505722272306,509.4861998749882 L488.7200256981692,589.9709027717388 M349.2388669040456,187.46655077695698 L488.6632362930626,267.861613688276" stroke="black"  stroke-width="4"  fill="red"/>
<path d="M261.1959630350235,480.0491073178245 L121.69424323464352,560.5010717254256 M121.69424323464352,560.5010717254256 L121.22897815977632,238.42459317880173 M260.8861310550817,158.06226867650173 L121.22897815977632,238.42459317880173 M261.1959630350235,480.0491073178245 L260.8861310550817,158.06226867650173 M539.7349130027081,641.0425266384858 L261.1959630350235,480.0491073178245 M400.2329347217308,721.6736214568472 L539.7349130027081,641.0425266384858 M400.2329347217308,721.6736214568472 L451.36138769801084,611.5519119272187 M451.36138769801084,611.5519119272187 L312.0919572978007,531.043230133125 M312.0919572978007,531.043230133125 L121.69424323464352,560.5010717254256 M312.0919572978007,531.043230133125 L311.83865001093557,208.99956210104335 M311.83865001093557,208.99956210104335 L121.22897815977632,238.42459317880173 M539.734913002708,318.8764080201913 L260.8861310550817,158.06226867650173 M400.0775007626434,399.41786276669654 L539.734913002708,318.8764080201913 M400.0775007626434,399.41786276669654 L451.2629962521109,289.41860386511945 M451.2629962521109,289.41860386511945 L311.83865001093557,208.99956210104335 M539.7349130027081,641.0425266384858 L539.734913002708,318.8764080201913 M400.2329347217308,721.6736214568472 L400.0775007626434,399.41786276669654 M451.36138769801084,611.5519119272187 L451.2629962521109,289.41860386511945" stroke="black"  stroke-width="4"  fill="red"/>
<path d="M121.69424323464352,560.5010717254256 L-17.962650892544616,641.0425266384858 M-17.962650892544616,641.0425266384858 L-18.583694950334404,318.87640802019126 M121.22897815977632,238.42459317880173 L-18.583694950334404,318.87640802019126 M121.69424323464352,560.5010717254256 L121.22897815977632,238.42459317880173 M121.69424323464352,560.5010717254256 L70.33332045386612,670.5451431311109 M70.33332045386612,670.5451431311109 L209.60245201276172,751.2090858429368 M209.60245201276172,751.2090858429368 L400.2329347217308,721.6736214568472 M260.5756090261869,802.3945059130907 L400.2329347217308,721.6736214568472 M-17.962650892544616,641.0425266384858 L260.5756090261869,802.3945059130907 M260.5756090261869,802.3945059130907 L260.2643946404828,480.0491073178245 M-18.583694950334404,318.87640802019126 L260.2643946404828,480.0491073178245 M121.22897815977632,238.42459317880173 L69.81049497921333,348.3462139651377 M69.81049497921333,348.3462139651377 L209.23454137955883,428.920516646732 M209.23454137955883,428.920516646732 L400.0775007626434,399.41786276669654 M260.2643946404828,480.0491073178245 L400.0775007626434,399.41786276669654 M70.33332045386612,670.5451431311109 L69.81049497921333,348.3462139651377 M209.60245201276172,751.2090858429368 L209.23454137955883,428.920516646732 M400.2329347217308,721.6736214568472 L400.0775007626434,399.41786276669654" stroke="black"  stroke-width="4"  fill="red"/>
<path d="M209.60245201276172,751.2090858429368 L209.23454137955883,428.920516646732 M400.2329347217308,721.6736214568472 L400.0775007626434,399.41786276669654 M209.60245201276172,751.2090858429368 L400.2329347217308,721.6736214568472 M209.23454137955883,428.920516646732 L400.0775007626434,399.41786276669654 M451.36138769801084,611.5519119272187 L451.2629962521109,289.41860386511945 M400.2329347217308,721.6736214568472 L451.36138769801084,611.5519119272187 M400.0775007626434,399.41786276669654 L451.2629962521109,289.41860386511945 M312.0919572978007,531.043230133125 L311.83865001093557,208.99956210104335 M451.36138769801084,611.5519119272187 L312.0919572978007,531.043230133125 M451.2629962521109,289.41860386511945 L311.83865001093557,208.99956210104335 M121.69424323464352,560.5010717254256 L121.22897815977632,238.42459317880173 M312.0919572978007,531.043230133125 L121.69424323464352,560.5010717254256 M311.83865001093557,208.99956210104335 L121.22897815977632,238.42459317880173 M70.33332045386612,670.5451431311109 L69.81049497921333,348.3462139651377 M121.69424323464352,560.5010717254256 L70.33332045386612,670.5451431311109 M121.22897815977632,238.42459317880173 L69.81049497921333,348.3462139651377 M70.33332045386612,670.5451431311109 L209.60245201276172,751.2090858429368 M69.81049497921333,348.3462139651377 L209.23454137955883,428.920516646732" stroke="black"  stroke-width="4"  fill="red"/></svg>