<svg viewBox="0 0 800 800" xmlns="http://www.w3.org/2000/svg"><path d="M208.68556561758032,148.05805920272599 L208.68556561758032,137.09211862765005 M82.00195132963836,221.11770063441543 L81.99139348196042,210.1456634763269 M208.68556561758032,148.05805920272599 L82.00195132963836,221.11770063441543 M208.68556561758032,137.09211862765005 L81.99139348196042,210.1456634763269 M335.3691799055223,221.11770063441543 L335.3797377532003,210.1456634763269 M335.3691799055223,221.11770063441543 L208.68556561758032,148.05805920272599 M335.3797377532003,210.1456634763269 L208.68556561758032,137.09211862765005 M208.68556561758032,294.3398774196793 L208.68556561758032,283.3617436752246 M82.00195132963836,221.11770063441543 L208.68556561758032,294.3398774196793 M81.99139348196042,210.1456634763269 L208.68556561758032,283.3617436752246 M272.0625822152167,257.7084382274962 L335.3691799055223,221.11770063441543 M208.68556561758032,294.3398774196793 L272.0625822152167,257.7084382274962 M272.0625822152167,257.7084382274962 L288.4724373412828,197.64642557625166 M288.4724373412828,197.64642557625166 L194.683212828806,170.0756797263116 M194.683212828806,170.0756797263116 L120.2204607908343,213.02815934247872 M120.2204607908343,213.02815934247872 L167.9891349166623,267.23138481362673 M167.9891349166623,267.23138481362673 L272.0625822152167,257.7084382274962 M272.0678670096629,246.73335277381926 L335.3797377532003,210.1456634763269 M208.68556561758032,283.3617436752246 L272.0678670096629,246.73335277381926 M272.0678670096629,246.73335277381926 L288.479084430243,186.6763455442167 M288.479084430243,186.6763455442167 L194.68204677376247,159.10790043165144 M194.68204677376247,159.10790043165144 L120.21308899049103,202.05679656423132 M120.21308899049103,202.05679656423132 L167.98574088864336,256.2555065796945 M167.98574088864336,256.2555065796945 L272.0678670096629,246.73335277381926 M272.0625822152167,257.7084382274962 L272.0678670096629,246.73335277381926 M288.4724373412828,197.64642557625166 L288.479084430243,186.6763455442167 M194.683212828806,170.0756797263116 L194.68204677376247,159.10790043165144 M120.2204607908343,213.02815934247872 L120.21308899049103,202.05679656423132 M167.9891349166623,267.23138481362673 L167.98574088864336,256.2555065796945" stroke="black"  stroke-width="4"  fill="red"/>
<path d="M167.9891349166623,267.23138481362673 L167.98574088864336,256.2555065796945 M272.0625822152167,257.7084382274962 L272.0678670096629,246.73335277381926 M167.9891349166623,267.23138481362673 L272.0625822152167,257.7084382274962 M167.98574088864336,256.2555065796945 L272.0678670096629,246.73335277381926 M288.4724373412828,197.64642557625166 L288.479084430243,186.6763455442167 M272.0625822152167,257.7084382274962 L288.4724373412828,197.64642557625166 M272.0678670096629,246.73335277381926 L288.479084430243,186.6763455442167 M194.683212828806,170.0756797263116 L194.68204677376247,159.10790043165144 M288.4724373412828,197.64642557625166 L194.683212828806,170.0756797263116 M288.479084430243,186.6763455442167 L194.68204677376247,159.10790043165144 M120.2204607908343,213.02815934247872 L120.21308899049103,202.05679656423132 M194.683212828806,170.0756797263116 L120.2204607908343,213.02815934247872 M194.68204677376247,159.10790043165144 L120.21308899049103,202.05679656423132 M120.2204607908343,213.02815934247872 L167.9891349166623,267.23138481362673 M120.21308899049103,202.05679656423132 L167.98574088864336,256.2555065796945" stroke="black"  stroke-width="4"  fill="red"/>
<path d="M82.00195132963836,221.11770063441543 L81.99139348196042,210.1456634763269 M-44.9634952481544,294.3398774196793 L-44.984657947561914,283.3617436752246 M82.00195132963836,221.11770063441543 L-44.9634952481544,294.3398774196793 M81.99139348196042,210.1456634763269 L-44.984657947561914,283.3617436752246 M208.68556561758032,294.3398774196793 L208.68556561758032,283.3617436752246 M208.68556561758032,294.3398774196793 L82.00195132963836,221.11770063441543 M208.68556561758032,283.3617436752246 L81.99139348196042,210.1456634763269 M81.7198051953668,367.7251325496766 L81.70920026507565,356.7409022608449 M-44.9634952481544,294.3398774196793 L81.7198051953668,367.7251325496766 M-44.984657947561914,283.3617436752246 L81.70920026507565,356.7409022608449 M145.2380125518331,331.0120861602121 L208.68556561758032,294.3398774196793 M81.7198051953668,367.7251325496766 L145.2380125518331,331.0120861602121 M145.2380125518331,331.0120861602121 L161.7818969380948,270.81636624277996 M161.7818969380948,270.81636624277996 L67.94156799502059,243.18428459585232 M67.94156799502059,243.18428459585232 L-6.6868645109389035,286.23233396641723 M-6.6868645109389035,286.23233396641723 L41.030360743718916,340.55624351077756 M41.030360743718916,340.55624351077756 L145.2380125518331,331.0120861602121 M145.2327159867554,320.03090413547056 L208.68556561758032,283.3617436752246 M81.70920026507565,356.7409022608449 L145.2327159867554,320.03090413547056 M145.2327159867554,320.03090413547056 L161.77798502180752,259.840189620533 M161.77798502180752,259.840189620533 L67.92983441871678,232.21040871241678 M67.92983441871678,232.21040871241678 L-6.704831465723942,275.2548745996608 M-6.704831465723942,275.2548745996608 L41.016362958047466,329.5742687116238 M41.016362958047466,329.5742687116238 L145.2327159867554,320.03090413547056 M145.2380125518331,331.0120861602121 L145.2327159867554,320.03090413547056 M161.7818969380948,270.81636624277996 L161.77798502180752,259.840189620533 M67.94156799502059,243.18428459585232 L67.92983441871678,232.21040871241678 M-6.6868645109389035,286.23233396641723 L-6.704831465723942,275.2548745996608 M41.030360743718916,340.55624351077756 L41.016362958047466,329.5742687116238" stroke="black"  stroke-width="4"  fill="red"/>
<path d="M41.030360743718916,340.55624351077756 L41.016362958047466,329.5742687116238 M145.2380125518331,331.0120861602121 L145.2327159867554,320.03090413547056 M41.030360743718916,340.55624351077756 L145.2380125518331,331.0120861602121 M41.016362958047466,329.5742687116238 L145.2327159867554,320.03090413547056 M161.7818969380948,270.81636624277996 L161.77798502180752,259.840189620533 M145.2380125518331,331.0120861602121 L161.7818969380948,270.81636624277996 M145.2327159867554,320.03090413547056 L161.77798502180752,259.840189620533 M67.94156799502059,243.18428459585232 L67.92983441871678,232.21040871241678 M161.7818969380948,270.81636624277996 L67.94156799502059,243.18428459585232 M161.77798502180752,259.840189620533 L67.92983441871678,232.21040871241678 M-6.6868645109389035,286.23233396641723 L-6.704831465723942,275.2548745996608 M67.94156799502059,243.18428459585232 L-6.6868645109389035,286.23233396641723 M67.92983441871678,232.21040871241678 L-6.704831465723942,275.2548745996608 M-6.6868645109389035,286.23233396641723 L41.030360743718916,340.55624351077756 M-6.704831465723942,275.2548745996608 L41.016362958047466,329.5742687116238" stroke="black"  stroke-width="4"  fill="red"/>
<path d="M717.11478684009,441.27401143693123 L717.1573011992522,430.28368469145903 M590.4330640299055,514.987061928845 L590.4650210155693,503.99063886062424 M717.11478684009,441.27401143693123 L590.4330640299055,514.987061928845 M717.1573011992522,430.28368469145903 L590.4650210155693,503.99063886062424 M844.9313963047889,514.987061928845 L844.984657947562,503.99063886062424 M844.9313963047889,514.987061928845 L717.11478684009,441.27401143693123 M844.984657947562,503.99063886062424 L717.1573011992522,430.28368469145903 M718.2509415243861,588.8648343212993 L718.2936461121369,577.8623151107887 M590.4330640299055,514.987061928845 L718.2509415243861,588.8648343212993 M590.4650210155693,503.99063886062424 L718.2936461121369,577.8623151107887 M781.6265347590264,551.9053233979945 L844.9313963047889,514.987061928845 M718.2509415243861,588.8648343212993 L781.6265347590264,551.9053233979945 M781.6265347590264,551.9053233979945 L797.6428794033225,491.3057988641733 M797.6428794033225,491.3057988641733 L703.2209670354931,463.4884626726156 M703.2209670354931,463.4884626726156 L628.7593978725639,506.82512880822196 M628.7593978725639,506.82512880822196 L677.1621643196465,561.5135470229121 M677.1621643196465,561.5135470229121 L781.6265347590264,551.9053233979945 M781.6745237839986,540.9058522331447 L844.984657947562,503.99063886062424 M718.2936461121369,577.8623151107887 L781.6745237839986,540.9058522331447 M781.6745237839986,540.9058522331447 L797.692164753065,480.31133281792063 M797.692164753065,480.31133281792063 L703.2623335167341,452.4962972673742 M703.2623335167341,452.4962972673742 L628.7945589050694,495.8293800826224 M628.7945589050694,495.8293800826224 L677.2014092013316,550.5132831365246 M677.2014092013316,550.5132831365246 L781.6745237839986,540.9058522331447 M781.6265347590264,551.9053233979945 L781.6745237839986,540.9058522331447 M797.6428794033225,491.3057988641733 L797.692164753065,480.31133281792063 M703.2209670354931,463.4884626726156 L703.2623335167341,452.4962972673742 M628.7593978725639,506.82512880822196 L628.7945589050694,495.8293800826224 M677.1621643196465,561.5135470229121 L677.2014092013316,550.5132831365246" stroke="black"  stroke-width="4"  fill="red"/>
<path d="M677.1621643196465,561.5135470229121 L677.2014092013316,550.5132831365246 M781.6265347590264,551.9053233979945 L781.6745237839986,540.9058522331447 M677.1621643196465,561.5135470229121 L781.6265347590264,551.9053233979945 M677.2014092013316,550.5132831365246 L781.6745237839986,540.9058522331447 M797.6428794033225,491.3057988641733 L797.692164753065,480.31133281792063 M781.6265347590264,551.9053233979945 L797.6428794033225,491.3057988641733 M781.6745237839986,540.9058522331447 L797.692164753065,480.31133281792063 M703.2209670354931,463.4884626726156 L703.2623335167341,452.4962972673742 M797.6428794033225,491.3057988641733 L703.2209670354931,463.4884626726156 M797.692164753065,480.31133281792063 L703.2623335167341,452.4962972673742 M628.7593978725639,506.82512880822196 L628.7945589050694,495.8293800826224 M703.2209670354931,463.4884626726156 L628.7593978725639,506.82512880822196 M703.2623335167341,452.4962972673742 L628.7945589050694,495.8293800826224 M628.7593978725639,506.82512880822196 L677.1621643196465,561.5135470229121 M628.7945589050694,495.8293800826224 L677.2014092013316,550.5132831365246" stroke="black"  stroke-width="4"  fill="red"/>
<path d="M590.4330640299055,514.987061928845 L590.4650210155693,503.99063886062424 M463.4682535709833,588.8648343212993 L463.48960586485873,577.8623151107887 M590.4330640299055,514.987061928845 L463.4682535709833,588.8648343212993 M590.4650210155693,503.99063886062424 L463.48960586485873,577.8623151107887 M718.2509415243861,588.8648343212993 L718.2936461121369,577.8623151107887 M718.2509415243861,588.8648343212993 L590.4330640299055,514.987061928845 M718.2936461121369,577.8623151107887 L590.4650210155693,503.99063886062424 M591.28708527915,662.9078813723498 L591.3191854150391,651.8992662469898 M463.4682535709833,588.8648343212993 L591.28708527915,662.9078813723498 M463.48960586485873,577.8623151107887 L591.3191854150391,651.8992662469898 M654.8044979898746,625.8656638705667 L718.2509415243861,588.8648343212993 M591.28708527915,662.9078813723498 L654.8044979898746,625.8656638705667 M654.8044979898746,625.8656638705667 L670.9550288379851,565.130632167045 M670.9550288379851,565.130632167045 L576.4810763490374,537.2511350214094 M576.4810763490374,537.2511350214094 L501.8530888387361,580.6846567086781 M501.8530888387361,580.6846567086781 L550.2048860831262,635.495383959704 M550.2048860831262,635.495383959704 L654.8044979898746,625.8656638705667 M654.8419062912168,614.8600966712485 L718.2936461121369,577.8623151107887 M591.3191854150391,651.8992662469898 L654.8419062912168,614.8600966712485 M654.8419062912168,614.8600966712485 L670.9937558571291,554.1300699154715 M670.9937558571291,554.1300699154715 L576.5118757489498,526.2528733429224 M576.5118757489498,526.2528733429224 L501.8776549720279,569.6828118182328 M501.8776549720279,569.6828118182328 L550.2335275829554,624.4890240688205 M550.2335275829554,624.4890240688205 L654.8419062912168,614.8600966712485 M654.8044979898746,625.8656638705667 L654.8419062912168,614.8600966712485 M670.9550288379851,565.130632167045 L670.9937558571291,554.1300699154715 M576.4810763490374,537.2511350214094 L576.5118757489498,526.2528733429224 M501.8530888387361,580.6846567086781 L501.8776549720279,569.6828118182328 M550.2048860831262,635.495383959704 L550.2335275829554,624.4890240688205" stroke="black"  stroke-width="4"  fill="red"/>
<path d="M550.2048860831262,635.495383959704 L550.2335275829554,624.4890240688205 M654.8044979898746,625.8656638705667 L654.8419062912168,614.8600966712485 M550.2048860831262,635.495383959704 L654.8044979898746,625.8656638705667 M550.2335275829554,624.4890240688205 L654.8419062912168,614.8600966712485 M670.9550288379851,565.130632167045 L670.9937558571291,554.1300699154715 M654.8044979898746,625.8656638705667 L670.9550288379851,565.130632167045 M654.8419062912168,614.8600966712485 L670.9937558571291,554.1300699154715 M576.4810763490374,537.2511350214094 L576.5118757489498,526.2528733429224 M670.9550288379851,565.130632167045 L576.4810763490374,537.2511350214094 M670.9937558571291,554.1300699154715 L576.5118757489498,526.2528733429224 M501.8530888387361,580.6846567086781 L501.8776549720279,569.6828118182328 M576.4810763490374,537.2511350214094 L501.8530888387361,580.6846567086781 M576.5118757489498,526.2528733429224 L501.8776549720279,569.6828118182328 M501.8530888387361,580.6846567086781 L550.2048860831262,635.495383959704 M501.8776549720279,569.6828118182328 L550.2335275829554,624.4890240688205" stroke="black"  stroke-width="4"  fill="red"/></svg>