<svg viewBox="0 0 800 800" xmlns="http://www.w3.org/2000/svg"><path d="M399.99999999999994,149.9266207705227 L399.99999999999994,94.38228706632731 M-81.24200834333777,427.46344957867365 L-81.29548561951782,371.88823394223755 M399.99999999999994,149.9266207705227 L-81.24200834333777,427.46344957867365 M399.99999999999994,94.38228706632731 L-81.29548561951782,371.88823394223755 M881.2420083433378,427.4634495786737 L881.2954856195178,371.88823394223766 M881.2420083433378,427.4634495786737 L399.99999999999994,149.9266207705227 M881.2954856195178,371.88823394223766 L399.99999999999994,94.38228706632731 M399.99999999999994,705.6177129336727 L399.99999999999994,650.0116153422905 M-81.24200834333777,427.46344957867365 L399.99999999999994,705.6177129336727 M-81.29548561951782,371.88823394223755 L399.99999999999994,650.0116153422905 M399.99999999999994,705.6177129336727 L881.2420083433378,427.4634495786737 M399.99999999999994,650.0116153422905 L881.2954856195178,371.88823394223766 M393.23167646666843,375.79505888335785 L391.8086198304737,374.74655741212337 M391.8086198304737,374.74655741212337 L390.86163309982186,373.5319487293325 M390.86163309982186,373.5319487293325 L390.4457450914902,372.2218254456991 M390.4457450914902,372.2218254456991 L390.5851177214356,370.89232915472854 M390.5851177214356,370.89232915472854 L391.27164280412063,369.6207244898892 M391.27164280412063,369.6207244898892 L392.4654145364007,368.4809096924714 M392.4654145364007,368.4809096924714 L394.09705160174747,367.5391221754908 M394.09705160174747,367.5391221754908 L396.0717289012716,366.8500903741996 M396.0717289012716,366.8500903741996 L398.2746894878182,366.4538536700893 M398.2746894878182,366.4538536700893 L400.57791235576695,366.37343725749326 M400.57791235576695,366.37343725749326 L402.8475515990228,366.61351390709785 M402.8475515990228,366.61351390709785 L404.95171174745,367.1601329449851 M404.95171174745,367.1601329449851 L406.7681120030229,367.9815311010557 M406.7681120030229,367.9815311010557 L408.1911928687223,369.02997582962655 M408.1911928687223,369.02997582962655 L409.1382467372627,370.24454076880346 M409.1382467372627,370.24454076880346 L409.5542294113526,371.55464332902187 M409.5542294113526,371.55464332902187 L409.4149572882402,372.88414666425854 M409.4149572882402,372.88414666425854 L408.7285155285763,374.15578452728477 M408.7285155285763,374.15578452728477 L407.5347908472078,375.2956510715064 M407.5347908472078,375.2956510715064 L405.903153781861,376.2374970293432 M405.903153781861,376.2374970293432 L403.92842943142534,376.9265805774365 M403.92842943142534,376.9265805774365 L401.7253855218576,377.32285047974216 M401.7253855218576,377.32285047974216 L399.4220621470759,377.40327393660533 M399.4220621470759,377.40327393660533 L397.1523282380618,377.1631765635941 M397.1523282380618,377.1631765635941 L395.04810095174594,376.6165137821134 M395.04810095174594,376.6165137821134 L393.23167646666843,375.79505888335785 M396.23988815878374,379.6167799987342 L395.44930711162397,379.03427967549527 M395.44930711162397,379.03427967549527 L394.9232009296458,378.35949492547434 M394.9232009296458,378.35949492547434 L394.69214269714666,377.6316432256167 M394.69214269714666,377.6316432256167 L394.76955876696763,376.893025081019 M394.76955876696763,376.893025081019 L395.1509468168273,376.18656600491437 M395.1509468168273,376.18656600491437 L395.81414022627706,375.55332213803655 M395.81414022627706,375.55332213803655 L396.72059518988596,375.03009381815275 M396.72059518988596,375.03009381815275 L397.81763174221487,374.64728768791934 M397.81763174221487,374.64728768791934 L399.04149557078637,374.4271497832032 M399.04149557078637,374.4271497832032 L400.32106203969335,374.38247257452446 M400.32106203969335,374.38247257452446 L401.58197022636017,374.51585265890145 M401.58197022636017,374.51585265890145 L402.7509434647964,374.8195386792041 M402.7509434647964,374.8195386792041 L403.76004655553487,375.27588296393725 M403.76004655553487,375.27588296393725 L404.55063508077416,375.8583657740075 M404.55063508077416,375.8583657740075 L405.07676198386343,376.53313702291257 M405.07676198386343,376.53313702291257 L405.30784943353416,377.2609823266558 M405.30784943353416,377.2609823266558 L405.2304643836515,377.9996026454095 M405.2304643836515,377.9996026454095 L404.84910205020776,378.70607196786966 M404.84910205020776,378.70607196786966 L404.1859231623208,379.33933180598393 M404.1859231623208,379.33933180598393 L403.2794681987119,379.8625781631697 M403.2794681987119,379.8625781631697 L402.1824171248202,380.2454002646408 M402.1824171248202,380.2454002646408 L400.9585275798329,380.46554841570696 M400.9585275798329,380.46554841570696 L399.6789300909876,380.5102277985451 M399.6789300909876,380.5102277985451 L398.417992687149,380.3768413180489 M398.417992687149,380.3768413180489 L397.24899872760176,380.07314179663763 M397.24899872760176,380.07314179663763 L396.23988815878374,379.6167799987342 M396.23988815878374,379.6167799987342 L394.7357958930599,377.7059366939039 M394.7357958930599,377.7059366939039 L393.23167646666843,375.79505888335785 M403.76004655553487,375.27588296393725 L403.75983765660095,403.0642947448623 M403.75983765660095,403.0642947448623 L402.7507906294259,402.6079250936583 M402.7507906294259,402.6079250936583 L401.58188233625447,402.30422219253524 M401.58188233625447,402.30422219253524 L400.3210442023402,402.1708346940231 M400.3210442023402,402.1708346940231 L399.041548822753,402.2155143861534 M399.041548822753,402.2155143861534 L397.81775298892006,402.43566452756164 M397.81775298892006,402.43566452756164 L396.72077738536814,402.8184919365907 M396.72077738536814,402.8184919365907 L395.8143727826036,403.34174934072166 M395.8143727826036,403.34174934072166 L395.15121621927085,403.9750284070246 M395.15121621927085,403.9750284070246 L394.7698493592911,404.6815267520765 M394.7698493592911,404.6815267520765 L394.69243759141534,405.4201859529652 M394.69243759141534,405.4201859529652 L394.9234829875879,406.14807811042095 M394.9234829875879,406.14807811042095 L395.449559940723,406.82290036810616 M395.449559940723,406.82290036810616 L396.2400970649718,407.4054330692503 M396.2400970649718,407.4054330692503 L397.24915156939534,407.8618202336249 M397.24915156939534,407.8618202336249 L398.4180805813755,408.165536635857 M398.4180805813755,408.165536635857 L399.67894792921504,408.2989305304885 M399.67894792921504,408.2989305304885 L400.9584743252939,408.25424866419877 M400.9584743252939,408.25424866419877 L402.1822958726852,408.0340882764402 M402.1822958726852,408.0340882764402 L403.2792859961865,407.65124489617324 M403.2792859961865,407.65124489617324 L404.18569059895106,407.1279694547398 M404.18569059895106,407.1279694547398 L404.84883264233446,406.49467441720014 M404.84883264233446,406.49467441720014 L405.2301737887558,405.7881658257923 M405.2301737887558,405.7881658257923 L405.30755454013996,405.0495044507474 M405.30755454013996,405.0495044507474 L405.0764799300422,404.3216186894063 M405.0764799300422,404.3216186894063 L404.5503822580983,403.64680993283736 M404.5503822580983,403.64680993283736 L403.75983765660095,403.0642947448623" stroke="black"  stroke-width="4"  fill="red"/>
<path d="M403.76004655553487,375.27588296393725 L404.55063508077416,375.8583657740075 M404.55063508077416,375.8583657740075 L405.07676198386343,376.53313702291257 M405.07676198386343,376.53313702291257 L405.30784943353416,377.2609823266558 M405.30784943353416,377.2609823266558 L405.2304643836515,377.9996026454095 M405.2304643836515,377.9996026454095 L404.84910205020776,378.70607196786966 M404.84910205020776,378.70607196786966 L404.1859231623208,379.33933180598393 M404.1859231623208,379.33933180598393 L403.2794681987119,379.8625781631697 M403.2794681987119,379.8625781631697 L402.1824171248202,380.2454002646408 M402.1824171248202,380.2454002646408 L400.9585275798329,380.46554841570696 M400.9585275798329,380.46554841570696 L399.6789300909876,380.5102277985451 M399.6789300909876,380.5102277985451 L398.417992687149,380.3768413180489 M398.417992687149,380.3768413180489 L397.24899872760176,380.07314179663763 M397.24899872760176,380.07314179663763 L396.23988815878374,379.6167799987342 M396.23988815878374,379.6167799987342 L395.44930711162397,379.03427967549527 M395.44930711162397,379.03427967549527 L394.9232009296458,378.35949492547434 M394.9232009296458,378.35949492547434 L394.69214269714666,377.6316432256167 M394.69214269714666,377.6316432256167 L394.76955876696763,376.893025081019 M394.76955876696763,376.893025081019 L395.1509468168273,376.18656600491437 M395.1509468168273,376.18656600491437 L395.81414022627706,375.55332213803655 M395.81414022627706,375.55332213803655 L396.72059518988596,375.03009381815275 M396.72059518988596,375.03009381815275 L397.81763174221487,374.64728768791934 M397.81763174221487,374.64728768791934 L399.04149557078637,374.4271497832032 M399.04149557078637,374.4271497832032 L400.32106203969335,374.38247257452446 M400.32106203969335,374.38247257452446 L401.58197022636017,374.51585265890145 M401.58197022636017,374.51585265890145 L402.7509434647964,374.8195386792041 M402.7509434647964,374.8195386792041 L403.76004655553487,375.27588296393725 M403.76004655553487,375.27588296393725 L403.75983765660095,403.0642947448623 M403.75983765660095,403.0642947448623 L402.7507906294259,402.6079250936583 M402.7507906294259,402.6079250936583 L401.58188233625447,402.30422219253524 M401.58188233625447,402.30422219253524 L400.3210442023402,402.1708346940231 M400.3210442023402,402.1708346940231 L399.041548822753,402.2155143861534 M399.041548822753,402.2155143861534 L397.81775298892006,402.43566452756164 M397.81775298892006,402.43566452756164 L396.72077738536814,402.8184919365907 M396.72077738536814,402.8184919365907 L395.8143727826036,403.34174934072166 M395.8143727826036,403.34174934072166 L395.15121621927085,403.9750284070246 M395.15121621927085,403.9750284070246 L394.7698493592911,404.6815267520765 M394.7698493592911,404.6815267520765 L394.69243759141534,405.4201859529652 M394.69243759141534,405.4201859529652 L394.9234829875879,406.14807811042095 M394.9234829875879,406.14807811042095 L395.449559940723,406.82290036810616 M395.449559940723,406.82290036810616 L396.2400970649718,407.4054330692503 M396.2400970649718,407.4054330692503 L397.24915156939534,407.8618202336249 M397.24915156939534,407.8618202336249 L398.4180805813755,408.165536635857 M398.4180805813755,408.165536635857 L399.67894792921504,408.2989305304885 M399.67894792921504,408.2989305304885 L400.9584743252939,408.25424866419877 M400.9584743252939,408.25424866419877 L402.1822958726852,408.0340882764402 M402.1822958726852,408.0340882764402 L403.2792859961865,407.65124489617324 M403.2792859961865,407.65124489617324 L404.18569059895106,407.1279694547398 M404.18569059895106,407.1279694547398 L404.84883264233446,406.49467441720014 M404.84883264233446,406.49467441720014 L405.2301737887558,405.7881658257923 M405.2301737887558,405.7881658257923 L405.30755454013996,405.0495044507474 M405.30755454013996,405.0495044507474 L405.0764799300422,404.3216186894063 M405.0764799300422,404.3216186894063 L404.5503822580983,403.64680993283736 M404.5503822580983,403.64680993283736 L403.75983765660095,403.0642947448623" stroke="black"  stroke-width="4"  fill="red"/>
<path d="M403.76004655553487,375.27588296393725 L404.55063508077416,375.8583657740075 M404.55063508077416,375.8583657740075 L405.07676198386343,376.53313702291257 M405.07676198386343,376.53313702291257 L405.30784943353416,377.2609823266558 M405.30784943353416,377.2609823266558 L405.2304643836515,377.9996026454095 M405.2304643836515,377.9996026454095 L404.84910205020776,378.70607196786966 M404.84910205020776,378.70607196786966 L404.1859231623208,379.33933180598393 M404.1859231623208,379.33933180598393 L403.2794681987119,379.8625781631697 M403.2794681987119,379.8625781631697 L402.1824171248202,380.2454002646408 M402.1824171248202,380.2454002646408 L400.9585275798329,380.46554841570696 M400.9585275798329,380.46554841570696 L399.6789300909876,380.5102277985451 M399.6789300909876,380.5102277985451 L398.417992687149,380.3768413180489 M398.417992687149,380.3768413180489 L397.24899872760176,380.07314179663763 M397.24899872760176,380.07314179663763 L396.23988815878374,379.6167799987342 M396.23988815878374,379.6167799987342 L393.23167646666843,375.79505888335785 M406.7681120030229,367.9815311010557 L408.1911928687223,369.02997582962655 M408.1911928687223,369.02997582962655 L409.1382467372627,370.24454076880346 M409.1382467372627,370.24454076880346 L409.5542294113526,371.55464332902187 M409.5542294113526,371.55464332902187 L409.4149572882402,372.88414666425854 M409.4149572882402,372.88414666425854 L408.7285155285763,374.15578452728477 M408.7285155285763,374.15578452728477 L407.5347908472078,375.2956510715064 M407.5347908472078,375.2956510715064 L405.903153781861,376.2374970293432 M405.903153781861,376.2374970293432 L403.92842943142534,376.9265805774365 M403.92842943142534,376.9265805774365 L401.7253855218576,377.32285047974216 M401.7253855218576,377.32285047974216 L399.4220621470759,377.40327393660533 M399.4220621470759,377.40327393660533 L397.1523282380618,377.1631765635941 M397.1523282380618,377.1631765635941 L395.04810095174594,376.6165137821134 M395.04810095174594,376.6165137821134 L393.23167646666843,375.79505888335785 M403.76004655553487,375.27588296393725 L406.7681120030229,367.9815311010557 M396.23988815878374,379.6167799987342 L395.44930711162397,379.03427967549527 M395.44930711162397,379.03427967549527 L394.9232009296458,378.35949492547434 M394.9232009296458,378.35949492547434 L394.69214269714666,377.6316432256167 M394.69214269714666,377.6316432256167 L394.76955876696763,376.893025081019 M394.76955876696763,376.893025081019 L395.1509468168273,376.18656600491437 M395.1509468168273,376.18656600491437 L395.81414022627706,375.55332213803655 M395.81414022627706,375.55332213803655 L396.72059518988596,375.03009381815275 M396.72059518988596,375.03009381815275 L397.81763174221487,374.64728768791934 M397.81763174221487,374.64728768791934 L399.04149557078637,374.4271497832032 M399.04149557078637,374.4271497832032 L400.32106203969335,374.38247257452446 M400.32106203969335,374.38247257452446 L401.58197022636017,374.51585265890145 M401.58197022636017,374.51585265890145 L402.7509434647964,374.8195386792041 M402.7509434647964,374.8195386792041 L403.76004655553487,375.27588296393725 M393.23167646666843,375.79505888335785 L391.8086198304737,374.74655741212337 M391.8086198304737,374.74655741212337 L390.86163309982186,373.5319487293325 M390.86163309982186,373.5319487293325 L390.4457450914902,372.2218254456991 M390.4457450914902,372.2218254456991 L390.5851177214356,370.89232915472854 M390.5851177214356,370.89232915472854 L391.27164280412063,369.6207244898892 M391.27164280412063,369.6207244898892 L392.4654145364007,368.4809096924714 M392.4654145364007,368.4809096924714 L394.09705160174747,367.5391221754908 M394.09705160174747,367.5391221754908 L396.0717289012716,366.8500903741996 M396.0717289012716,366.8500903741996 L398.2746894878182,366.4538536700893 M398.2746894878182,366.4538536700893 L400.57791235576695,366.37343725749326 M400.57791235576695,366.37343725749326 L402.8475515990228,366.61351390709785 M402.8475515990228,366.61351390709785 L404.95171174745,367.1601329449851 M404.95171174745,367.1601329449851 L406.7681120030229,367.9815311010557" stroke="black"  stroke-width="4"  fill="red"/></svg>